<?xml version="1.0" encoding="utf-8"?>
<!-- Generator: Adobe Illustrator 15.1.0, SVG Export Plug-In . SVG Version: 6.00 Build 0)  -->
<!DOCTYPE svg PUBLIC "-//W3C//DTD SVG 1.0//EN" "http://www.w3.org/TR/2001/REC-SVG-20010904/DTD/svg10.dtd">
<svg version="1.0" id="Layer_1" xmlns="http://www.w3.org/2000/svg" xmlns:xlink="http://www.w3.org/1999/xlink" x="0px" y="0px"
	 width="375px" height="286.333px" viewBox="0 0 375 286.333" enable-background="new 0 0 375 286.333" xml:space="preserve">
<g>
	<defs>
		<rect id="SVGID_1_" x="65.21" y="15.682" width="294.809" height="252.204"/>
	</defs>
	<clipPath id="SVGID_2_">
		<use xlink:href="#SVGID_1_"  overflow="visible"/>
	</clipPath>
	<path clip-path="url(#SVGID_2_)" fill="#E3E3E3" stroke="#E3E3E3" d="M285.31,22.41c-1.163,5.828-1.163,15.442-1.163,20.687
		c0.292,5.827,0,12.236,4.651,16.024c4.938,3.787,11.912,6.118,17.434,9.032c6.974,3.788,13.778,7.332,20.922,10.197
		c5.812,2.332,9.878,4.37,15.11,6.118c7.557,2.623,14.614,4.927,20.919,9.615c16.854,12.528,21.507,44.287,20.344,62.058
		c-0.611,9.309-2.034,18.356-2.907,27.681c-0.288,4.076,0.293,8.156,0.584,12.236c0.289,6.408,0.289,13.111,0.289,19.52
		c0,8.451-0.58,16.022,3.197,23.599c2.903,5.83,13.366,28.262,12.492,50.987c-0.515,13.407,6.102,70.8,10.462,84.205
		c1.743,5.532,3.487,9.903,8.716,12.525c5.813,2.912,14.533,13.984,14.533,13.984c1.449,1.749,2.321,3.786,3.773,5.535
		c1.455,2.622,4.072,3.789,5.813,5.828c2.031,2.332,2.904,5.828,4.361,8.158c1.742,2.914,8.819,9.034,6.973,10.197
		c-9.37,5.9-17.438-9.032-22.667-14.274l-0.872,1.747c-0.579,1.749-1.16,2.548-1.742,4.005c-0.581,1.457-0.871,2.986-0.581,4.735
		c0.869,4.954,1.669,8.742,3.415,13.401c1.743,5.536,3.631,10.414,5.667,15.953c1.159,2.912,5.229,9.833,0.799,12.31
		c-4.054,2.265-6.466-3.061-7.34-5.1c-1.453-3.497-2.686-6.337-4.14-9.835c-1.454-3.787-3.408-7.322-5.377-10.998
		c-1.597-2.984-4.066-1.455-4.066-1.455c-1.163,4.661,0.872,10.195,1.743,14.858c0.872,5.244,2.613,10.197,2.907,15.439
		c0,2.916,0.215,5.539-3.778,6.412c-4.27,0.933-5.524-6.118-6.395-9.615c-1.452-5.826-2.615-11.944-3.775-18.063
		c-0.582-3.206-0.582-6.702-2.328-9.326c-1.594-0.145-1.162,3.204-1.45,3.496c-0.291,5.83,0,11.656,0,17.482
		c0,2.622,2.104,11.933-3.195,13.184c-7.412,1.749-5.813-13.766-6.104-16.388c-0.87-4.953-0.87-9.615-1.453-14.278
		c-0.287-2.037-0.726-6.917-2.033-6.991c-1.308-0.071-3.197,6.991-3.486,9.325c-0.582,2.329-1.747,4.371-2.035,6.7
		c-0.293,2.622-1.453,9.833-5.158,8.959c-4.526-1.067-2.688-7.211-2.399-10.125c1.162-8.448,2.325-18.355,1.162-27.096
		c-0.871-7.865-2.613-16.682-0.289-24.836c0.874-3.498,1.964-6.266,1.964-10.053c0-3.498-0.8-6.484-1.964-9.688
		c0,0-19.468-55.647-23.247-67.302c-3.195-10.489-5.813-20.976-7.845-32.049c-1.744-8.452-1.163-16.607-1.163-25.349
		c0-3.786-0.289-8.157-1.162-11.652c-0.87-3.496-2.614-6.992-2.905-10.489l-0.29,8.742c-1.743,11.067-5.012,21.266-6.102,33.287
		c-0.868,9.579,0.58,18.863,0.58,28.477c0,18.649,4.793,35.621,5.086,54.556l1.526,8.523c1.525,9.396,2.326,18.205,2.832,25.564
		c0.873,11.364,1.308,22.071,2.469,33.142c0.872,10.199,0.842,19.122,1.019,29.354c0.652,37.803-7.12,78.739-10.316,94.181
		c-1.452,6.41-2.907,13.403-5.229,19.812c-1.165,3.787-2.907,7.285-3.778,11.072c-1.162,4.661-0.873,9.614-1.454,14.566
		c-0.869,4.663-2.322,9.034-3.195,13.695c-2.907,14.274,1.745,28.261,3.053,42.902c0.282,3.192,0.653,18.354,0.435,22.942
		c0,0-1.742,31.687-11.769,54.629c-5.531,12.657-8.646,21.341-12.422,32.121c-3.487,9.324-6.611,20.178-6.902,30.375
		c-0.288,7.285,0.291,14.276-0.872,21.56c-0.581,4.08,0.292,6.118,2.034,9.908l3.779,3.493c5.229,3.496,11.042,7.575,15.4,12.238
		c1.742,2.038,3.195,4.663,0,6.118c-0.873,0.581-2.035,0-3.197,0.292c-0.581,0-1.161,0.873-1.743,0.873
		c-1.161,0.292-1.743,0-2.905,0c-1.453,0-1.745,0.875-3.488,1.165c-2.034,0.874-4.649,0.294-6.684-0.29
		c-0.29-0.291-0.871-0.875-1.162-1.165c-3.194,2.329-8.425,3.788-11.331,0v-0.294c-2.616,5.83-13.948,5.83-18.888,4.082
		c-1.744-0.586-2.764-1.385-3.923-2.261c-1.165-0.581-1.601-0.945-2.764-1.821c-1.743-1.455-2.613-4.661-2.325-6.991
		c0.293-2.039,1.456-3.787,1.456-5.826c0-2.33,0-4.955-0.29-7.285c-0.584-7.573,1.961-13.109,1.961-20.687
		c0-2.62-0.802-6.41,0.361-8.738c1.165-2.33,2.617-4.079,3.487-6.412c1.743-4.077,1.454-9.031,1.454-13.111
		c0,0-0.873-36.999-2.035-53.025l-1.161-12.235c0-1.165-0.29-2.333-0.29-3.204c-1.745-9.617-2.032-18.939-1.161-28.555
		c0.871-8.74,4.357-16.607,6.972-25.056c2.905-8.159,5.231-17.191,4.069-26.224c-1.164-8.448-4.579-19.01-5.158-27.75
		c0,0,0.072-20.835-0.872-29.938c-1.089-10.487-1.476-20.581-3.269-31.246c-2.833-16.826-4.653-33.142-5.231-50.043
		c-0.293-7.283-0.581-14.566-0.581-21.85c0-4.952,0-30.302-0.871-36.42c0-1.165-0.726-3.568-3.487-3.496h-0.469
		c-2.752-0.072-3.476,2.331-3.476,3.496c-0.868,6.118-0.868,31.468-0.868,36.42c0,7.283-0.288,14.566-0.578,21.85
		c-0.581,16.901-2.392,33.217-5.215,50.043c-1.787,10.665-2.172,20.759-3.26,31.246c-0.94,9.103-0.866,29.938-0.866,29.938
		c-0.579,8.74-3.98,19.302-5.143,27.75c-1.155,9.032,1.162,18.064,4.058,26.224c2.607,8.448,6.08,16.315,6.951,25.056
		c0.867,9.615,0.577,18.938-1.16,28.555c0,0.871-0.29,2.039-0.29,3.204l-1.157,12.235c-1.158,16.026-2.027,53.025-2.027,53.025
		c0,4.08-0.292,9.034,1.448,13.111c0.867,2.333,2.315,4.082,3.475,6.412c1.156,2.328,0.361,6.118,0.361,8.738
		c0,7.577,2.534,13.113,1.956,20.687c-0.29,2.33-0.29,4.955-0.29,7.285c0,2.039,1.159,3.787,1.449,5.826
		c0.288,2.33-0.581,5.536-2.32,6.991c-1.156,0.876-1.591,1.24-2.751,1.821c-1.157,0.876-2.17,1.675-3.908,2.261
		c-4.921,1.748-16.218,1.748-18.821-4.082v0.294c-2.896,3.788-8.11,2.329-11.296,0c-0.289,0.29-0.868,0.874-1.156,1.165
		c-2.027,0.584-4.634,1.164-6.663,0.29c-1.736-0.29-2.024-1.165-3.474-1.165c-1.158,0-1.737,0.292-2.896,0
		c-0.58,0-1.157-0.873-1.736-0.873c-1.159-0.292-2.317,0.289-3.187-0.292c-3.184-1.455-1.737-4.08,0-6.118
		c4.343-4.663,10.136-8.742,15.349-12.238l3.764-3.493c1.737-3.79,2.607-5.828,2.03-9.908c-1.161-7.283-0.583-14.274-0.871-21.56
		c-0.29-10.197-3.402-21.051-6.877-30.375c-3.765-10.78-6.868-19.464-12.38-32.121c-9.994-22.942-11.731-54.629-11.731-54.629
		c-0.218-4.589,0.15-19.75,0.434-22.942c1.303-14.642,5.938-28.628,3.042-42.902c-0.869-4.661-2.318-9.032-3.188-13.695
		c-0.578-4.952-0.288-9.905-1.448-14.566c-0.868-3.787-2.606-7.285-3.765-11.072c-2.316-6.408-3.764-13.401-5.212-19.812
		c-3.184-15.441-10.931-56.378-10.279-94.181c0.176-10.232,0.146-19.155,1.015-29.354c1.157-11.07,1.591-21.777,2.459-33.142
		c0.504-7.359,1.303-16.168,2.825-25.564l1.519-8.523c0.29-18.936,5.067-35.907,5.067-54.556c0-9.614,1.444-18.898,0.58-28.477
		c-1.085-12.021-4.344-22.22-6.081-33.287l-0.289-8.742c-0.291,3.498-2.028,6.993-2.896,10.489
		c-0.869,3.496-1.158,7.867-1.158,11.652c0,8.742,0.58,16.897-1.157,25.349c-2.029,11.073-4.635,21.56-7.819,32.049
		c-3.765,11.654-23.167,67.302-23.167,67.302c-1.159,3.204-1.955,6.19-1.955,9.688c0,3.787,1.086,6.555,1.955,10.053
		c2.316,8.154,0.579,16.971-0.29,24.836c-1.159,8.74,0,18.647,1.159,27.096c0.288,2.914,2.12,9.058-2.39,10.125
		c-3.691,0.874-4.85-6.337-5.14-8.959c-0.288-2.329-1.448-4.371-2.025-6.7c-0.291-2.334-2.173-9.396-3.477-9.325
		c-1.302,0.074-1.737,4.954-2.026,6.991c-0.58,4.663-0.58,9.325-1.448,14.278c-0.29,2.622,1.304,18.137-6.082,16.388
		c-5.285-1.251-3.185-10.562-3.185-13.184c0-5.826,0.29-11.652,0-17.482c-0.29-0.292,0.145-3.641-1.448-3.496
		c-1.738,2.624-1.738,6.12-2.317,9.326c-1.158,6.118-2.316,12.236-3.765,18.063c-0.868,3.497-2.117,10.548-6.37,9.615
		c-3.982-0.873-3.765-3.496-3.765-6.412c0.29-5.242,2.027-10.195,2.896-15.439c0.869-4.663,2.896-10.197,1.738-14.858
		c0,0-2.462-1.529-4.054,1.455c-1.961,3.676-3.91,7.211-5.358,10.998c-1.448,3.498-2.679,6.338-4.126,9.835
		c-0.869,2.039-3.272,7.364-7.313,5.1c-4.415-2.477-0.36-9.397,0.797-12.31c2.027-5.539,3.91-10.417,5.647-15.953
		c1.737-4.659,2.534-8.447,3.402-13.401c0.289-1.749,0-3.278-0.58-4.735c-0.579-1.457-1.157-2.256-1.737-4.005l-0.869-1.747
		c-5.213,5.242-13.248,20.175-22.587,14.274c-1.839-1.163,5.212-7.283,6.949-10.197c1.449-2.33,2.317-5.826,4.344-8.158
		c1.738-2.039,4.344-3.206,5.792-5.828c1.446-1.749,2.316-3.786,3.764-5.535c0,0,8.688-11.072,14.479-13.984
		c5.212-2.622,6.95-6.993,8.688-12.525c4.344-13.405,10.938-70.798,10.425-84.205c-0.868-22.725,9.556-45.157,12.453-50.987
		c3.764-7.577,3.185-15.148,3.185-23.599c0-6.409,0-13.111,0.29-19.52c0.289-4.081,0.869-8.161,0.579-12.236
		c-0.869-9.324-2.29-18.372-2.896-27.681c-1.157-17.771,3.475-49.53,20.272-62.058c6.285-4.688,13.319-6.992,20.85-9.615
		c5.212-1.748,9.265-3.787,15.059-6.118c7.122-2.866,13.903-6.41,20.853-10.197c5.503-2.914,12.451-5.245,17.377-9.032
		c4.634-3.788,4.344-10.197,4.634-16.024c0-5.245,0-14.859-1.159-20.687"/>
	<g clip-path="url(#SVGID_2_)">
		<path fill="none" d="M154.704,140.699c3.764,2.622,4.633,4.662,5.501,8.741"/>
	</g>
	<g clip-path="url(#SVGID_2_)">
		<path fill="none" d="M164.838,138.659c-4.633,6.41-5.791,14.859-4.344,22.725c1.448,8.159,2.317,19.813,8.978,25.64"/>
	</g>
	<path clip-path="url(#SVGID_2_)" fill="none" d="M165.998,234.516c-2.028-19.813,0-35.837,0-51.57"/>
	<g clip-path="url(#SVGID_2_)">
		<path fill="none" d="M351.853,140.699c-3.775,2.622-4.649,4.662-5.521,8.741"/>
	</g>
	<g clip-path="url(#SVGID_2_)">
		<path fill="none" d="M341.683,138.659c4.649,6.41,5.811,14.859,4.357,22.725c-1.453,8.159-2.324,19.813-9.009,25.64"/>
	</g>
	<path clip-path="url(#SVGID_2_)" fill="none" d="M340.52,234.516c2.035-19.813,0-35.837,0-51.57"/>
	<path clip-path="url(#SVGID_2_)" fill="#F6E5DE" stroke="#AA857B" d="M295.553-20.856c2.205-4.371,5.07-0.875,5.07,2.403
		c0,3.933-2.865,7.211-3.968,10.925c-0.882,3.934-0.44,7.867-2.425,11.364c-0.882,1.747-2.204,5.244-4.188,5.9"/>
	<path clip-path="url(#SVGID_2_)" fill="#F6E5DE" stroke="#AA857B" d="M211.214-20.856c-2.206-4.371-5.071-0.875-5.071,2.403
		c0,3.933,2.865,7.211,3.966,10.925c0.882,3.934,0.441,7.867,2.427,11.364c0.881,1.747,2.205,5.244,4.188,5.9"/>
	<path clip-path="url(#SVGID_2_)" fill="#E3E3E3" stroke="#E3E3E3" d="M253.023-73.446c-47.494-8.157-41.701,51.569-41.123,58.563
		c0.289,4.08,1.449,8.159,2.028,12.236c1.733,13.111,1.733,26.806,11.871,36.419c7.531,7.285,13.9,14.859,25.194,14.859h2.464
		c11.295,0,17.663-7.575,25.193-14.859c10.134-9.614,10.134-23.308,11.871-36.419c0.579-4.078,1.738-8.157,2.028-12.236
		c0.578-6.993,6.368-66.72-41.121-58.563"/>
	<path clip-path="url(#SVGID_2_)" fill="#F6E5DE" stroke="#AA857B" d="M271.912-79.472c-9.282-6.684-20.987-6.684-31.887-5.505
		c-9.69,0.789-18.971,7.863-25.839,14.545c-4.029,4.718-4.839,8.255-6.456,14.153c-2.019,9.04-1.611,17.688-2.019,26.73
		c0,0.394,0.807,0.787,1.215,1.18c0,1.179-0.408,2.359,0,3.144c0.4,0.786,2.019,0.786,2.421,1.181
		c0.81,1.571,1.208,3.537,2.423,5.108c0.805-3.143,0-5.896,0.805-9.042c0,0,0.81,0,1.213,0c-0.403-5.894,0.806-11.005,2.421-16.9
		c0-1.18-0.403-2.36,0-3.539c3.229-5.108,5.248-11.399,11.301-14.151c-0.806,0.785-1.609,1.965-2.017,3.146
		c8.071-3.54,16.552-5.112,25.027-6.685c-0.402,0-0.804,0-0.804,0.395c8.068,0,17.761,1.178,22.601-6.684
		c2.424,3.931,4.845,8.254,9.287,10.613c0-0.785,0.81-1.57,0.405-2.358c0.404,0,1.211,0,1.172,0.493
		c2.055,5.405,2.858,10.909,5.287,16.41c0,0.395,0.801-1.572,1.613-1.179c0.808,0.787,1.212,1.573,1.616,2.359
		c2.421,7.862,1.61,15.724,2.016,23.585c3.637,0.785,4.459,4.648,5.291,1.763c2.351-8.158,5.549-20.982,3.526-28.844
		c-2.015-9.434-4.378-16.554-10.031-24.808c-0.802-0.786-2.014-1.572-2.821-2.358c-4.036-2.358-8.884-1.18-13.321-2.752
		c-1.616-0.394-3.23,0-4.84,0H271.912z"/>
</g>
<g>
	<g>
		<path fill="#F0D1C5" d="M296.91,138.524c-0.597,0.18-1.197,0.659-0.978,1.564c0.216,0.902,0.221,1.659,0.121,2.438
			c-0.1,0.776-0.615,2.013-1.479,2.644c-0.864,0.633-2.234,2.081-2.937,2.469c-0.697,0.387-1.957,1.015-2.436,1.32
			c-0.479,0.303-3.165,1.417-3.795,1.542c-0.633,0.123-1.872,0.091-2.659,0.037c-0.782-0.06-4.929-1.626-6.216-2.846
			c-3.051-2.894-15.479-17.966-17.934-31.128c-0.301-1.617-0.62-41.155-0.62-41.155l-8.885-0.411
			c-0.681,27.885,1.033,43.409-2.479,51.398c-2.317,5.272-5.34,7.965-9.068,8.58c-0.937,0.155-2.975-0.496-4.009-1.28
			c-3.234-2.457-4.524-6.449-5.246-8.029c-0.864-1.895-4.142-0.271-3.186,1.489s1.967,4.039,2.671,6.372
			c0.707,2.334-2.42,1.655-4.241,0.165c-1.819-1.491-3.291-3.946-3.55-4.171c-0.256-0.226-2.473,1.368-2.473,1.368
			s2.073,3.57,3.054,4.188c0.979,0.617,1.304,1.04,1.304,1.04s-2.248,0.572-3.441,0.66c-1.189,0.089-3.834,0.801-3.834,0.801
			s-1.365,0.406-1.093,2.165s1.502,2.03,1.502,2.03s0.114-0.239,3.643-1.442c3.523-1.204,6.775-1.896,9.408-1.202
			c2.635,0.694,5.874,1.297,7.075,2.968c1.202,1.672,1.23,4.023,0.002,7.318c-1.203,3.233-1.723,5.84-3.747,7.464
			c-2.026,1.626-6.069,2.377-8.019,1.701c-1.951-0.679-1.681,3.438-1.681,3.438s4.759,2.417,8.88-0.639
			c4.119-3.056-2.169,2.533-3.911,4.201c-1.737,1.671-4.962,4.316-7.024,4.515c-1.646,0.161-3.196,0.123-4.832-0.133
			c-0.359-0.06-0.863-0.437-1.146,0.72c-0.283,1.159-0.013,1.458-0.004,2.014c0.009,0.558,0.923,0.979,2.099,0.977
			c1.177,0.003,2.175-0.116,1.818,0.287c-0.361,0.409-0.816,0.798-2.037,1.07c-1.219,0.271-2.207,0.298-2.075,1.341
			c0.125,1.04,0.297,1.261,0.501,1.747c0.466,1.091,0.584,0.926,1.727,0.55c1.138-0.377,4.801-2.112,5.807-2.879
			c1.008-0.771,2.489-1.464,3.414-2.334c0.926-0.872-0.579,0.557-1.443,2.271c-0.863,1.718-1.119,2.698-1.579,3.735
			c-0.463,1.036-1.393,2.024-0.459,2.914c0.938,0.891,2.505,0.836,2.872,0.984c0.369,0.153,0.797-0.059,1.131-0.932
			c0.337-0.872,2.251-6.079,3.093-7.662c0.841-1.578,1.213-4.208,1.879-4.98c0.665-0.778,0.455-0.394,0.442,0.903
			c-0.012,1.295-0.115,2.574-0.292,3.659c-0.175,1.082-0.05,0.914,0.481,1.279c0.529,0.361,2.567,0.498,3.447-0.105
			c0.883-0.601,1.174-2.409,1.25-3.507c0.079-1.097,0.433-6.97,2.329-10.839c1.895-3.867,4.453-6.984,6.21-10.598
			s6.14-13.202,6.824-16.243c0.683-3.041,3.369-7.98,3.95-6.151c0.582,1.83,0.804,3.905,1.938,6.31
			c4.259,9.056,7.126,11.804,11.896,16.975c4.766,5.167,9.251,6.774,11.807,10.438c2.559,3.668,2.936,4.139,2.144,5.262
			c-0.79,1.125-0.972,1.455-1.646,2.131c-0.675,0.682-0.889,0.713-0.316,1.622c0.216,0.334,0.778,0.856,1.414,1.113
			c0.634,0.252,1.428-0.114,1.752-0.599c0.647-0.967,0.995-1.538,1.064-1.806c0.067-0.265,0.434,1.806,1.106,4.242
			c0.672,2.438-0.165,6.094-1.096,7.369c-0.928,1.279,2.174,2.438,2.174,2.438s0.74-1.132,1.495-3.871
			c0.753-2.734,0.49,0.033,0.643,1.391c0.15,1.361-0.062,1.401-0.146,2.516c-0.089,1.109,0.22,1.468,1.154,1.326
			c0.934-0.14,1.62,0.316,1.657-0.998c0.035-1.312,0.075-5.738-0.379-7.08c-0.455-1.342-0.314-1.495,0.229-0.885
			c0.542,0.609,1.999,3.743,2.8,4.538c1.639,1.624,3.276-1.759,3.276-1.759s-2.126-3.384-3.304-4.627
			c-1.179-1.241-4.601-8.148-5.617-9.629c-1.02-1.487-3.581-5.908-4.267-7.122c-0.689-1.21,1.262-0.625,2.995,0.001
			c1.739,0.629,2.605,0.753,3.437,2.191c0.829,1.436,1.68,5.374,2.179,6.688c0.892,2.347,3.895,0.181,3.895,0.181
			s-0.698-2.112-0.968-3.786c-0.271-1.673-0.229-2.606-0.489-2.767c-0.26-0.157,1.855,0.374,3.213,0.719
			c1.657,0.42,2.476,0.556,2.886-1.474c0.289-1.436-0.273-1.624-0.956-1.895c-0.435-0.172-0.272-0.406-0.866-0.375
			c-1.302,0.066-4.939-1.011-5.815-2.27c-0.875-1.259,1.055-3.321,2.456-4.1c1.398-0.778,3.459-1.013,4.655-0.615
			c1.197,0.397,0.663,0.053,0.663,0.053l0.682-1.895c0,0-0.289-1.102-1.755-1.425c-1.468-0.323-1.893-0.998-1.19-1.386
			c0.699-0.39,1.074-0.295,2.214-1.233c1.142-0.939,1.801-0.884,1.961-1.504c0.159-0.619,0.818-1.083-0.683-2.301
			c-0.753-0.611-1.308-0.355-2.239,0.542c-0.931,0.897-0.367,0.319-0.931,0.897c-0.456,0.471-0.861,0.632-0.633-0.255
			c0.227-0.886,0.129-1.664-0.134-2.204c-0.261-0.54-0.542-0.752-1.235-0.679C297.813,138.62,296.91,138.524,296.91,138.524z"/>
		<path fill="#FFFFFF" d="M248.517,118.121c1.635,0.331,2.051,0.955,3.05,1.321s3.392,0.663,4.847-0.068
			c1.45-0.732,1.488-0.795,1.853-1.16c0.36-0.367,1.454-0.825,1.454,0.181c0,1.005,0.181,1.555,0.092,1.92
			c-0.092,0.367-0.727,1.006-1.638,1.464c-0.906,0.458-1.19,1.017-1.829,1.384c-0.635,0.365-2.935,0.615-4.3,0.068
			c-1.363-0.55-2.351-1.452-3.077-1.635c-0.725-0.184-1.271-0.731-1.359-1.462c-0.092-0.733-0.092-1.007-0.092-1.556
			C247.517,118.029,248.06,118.029,248.517,118.121z"/>
		<path fill="#FFFFFF" d="M248.628,122.328c1.938,1.189,2.555,1.643,3.621,1.918c1.066,0.274,3.236,0.196,4.368-0.339
			c1.161-0.547,2.121-1.122,2.701-1.67c0.483-0.458,0.775-0.344,1.259,0.091c0.477,0.429,0.985,2.046,0.887,2.595
			c-0.097,0.549-0.319,0.183-1.308,0.624c-0.877,0.391-1.424,0.732-2.378,1.338c-0.86,0.545-1.483,1.477-2.185,2.03
			c-0.581,0.457-1.429,0.363-2.108-0.368c-0.675-0.731-3.774-2.287-4.646-2.744c-0.873-0.457-1.499-0.63-1.983-0.813
			c-0.484-0.184,0.411-2.504,0.609-2.753C247.649,122.008,248.284,122.118,248.628,122.328z"/>
		<path fill="#FFFFFF" d="M246.994,125.87c2.227,1.372,4.848,2.221,6.01,2.77c1.161,0.548,2.023,0.828,1.702,1.494
			c-0.711,1.475-0.425,1.617-2.661,0.947c-1.361-0.412-4.167-2.295-4.847-2.842c-0.678-0.549-1.433-0.375-1.433-1.015
			C245.766,126.606,246.476,125.548,246.994,125.87z"/>
		<path fill="#FFFFFF" d="M245.45,130.743c1.827,1.294,1.791,2.337,3.56,3.542c1.767,1.205,1.873,1.314,2.183,0.621
			c0.307-0.693,2.757-2.177,2.662-2.726c-0.097-0.55-0.173-0.523-1.238-0.614c-1.065-0.092-4.455-2.014-5.231-2.378
			c-0.773-0.364-1.16-0.824-1.451-1.28c-0.292-0.457-0.676-0.366-0.871,0.549s-0.762,0.674-0.762,1.225
			C244.301,130.229,245.063,130.468,245.45,130.743z"/>
		<path fill="#FFFFFF" d="M245.354,131.292c1.068,1.01,2.586,3.101,3.55,3.809c0.967,0.708,1.892,1.04,1.6,1.643
			c-0.292,0.602-0.394,1.232-0.656,1.655c-0.265,0.42-1.102,0.751-2.353,0c-1.254-0.753-4.244-2.894-4.866-3.916
			c-0.619-1.024-1.506-0.667-1.251-1.646c0.257-0.978,2.092-2.002,2.19-2.369C243.666,130.104,244.772,130.743,245.354,131.292z"/>
		<path fill="#FFFFFF" d="M259.401,126.9c0.844-0.451,0.844-0.451,1.499-0.989c0.658-0.541,1.217-0.901,1.496-0.186
			c0.277,0.714,1.372,2.102,1.259,2.535c-0.111,0.434-1.646,0.687-2.391,0.957c-0.752,0.271-2.153,1.351-2.813,1.801
			c-0.653,0.449-1.216,0.898-1.777,1.168c-0.562,0.27-1.028,0.094-1.303-0.71c-0.278-0.802-0.741-1.965,0.475-2.505
			C257.063,128.43,259.401,126.9,259.401,126.9z"/>
		<path fill="#FFFFFF" d="M256.485,132.905c-0.469,0.359-0.751,0.985-0.285,1.61c0.463,0.623,0.743,1.072,1.115,1.338
			c0.372,0.266,1.216-0.721,2.151-1.35c0.939-0.63,4.371-2.111,5.229-2.448c0.857-0.338-0.565,0.08-0.158-0.002
			c0.404-0.083,1.414-0.352,1.028-1.098c-0.39-0.744-0.619-1.425-0.889-1.862c-0.273-0.437-2.108-0.147-2.857,0.481
			C261.073,130.204,256.954,132.544,256.485,132.905z"/>
		<path fill="#FFFFFF" d="M258.9,136.384c1.31-0.81,2.025-1.273,3.182-2.161c0.937-0.719,2.89-1.168,3.135-1.384
			c0.249-0.215,1,0.008,1.161,0.88c0.159,0.874,1.062,1,0.067,1.488c-0.993,0.489-1.464,0.614-2.345,1.04
			c-0.88,0.425-3.06,2.095-3.623,2.544c-0.562,0.449-1.311,0.989-1.869,0.364c-0.556-0.622-0.556-0.98-0.739-1.517
			C257.684,137.102,258.65,136.538,258.9,136.384z"/>
		<path fill="#FFFFFF" d="M261.879,138.608c-1.216,0.898-2.246,1.17-2.062,1.885c0.184,0.716,0.464,1.251,0.742,1.519
			c0.278,0.267,1.319-0.91,2.089-1.267c1.418-0.656,3.175-1.843,4.439-2.635c0.881-0.552,0.885-0.277,1.064-0.6
			c0.181-0.326,0.157-0.101-0.341-1.15c-0.229-0.477-0.537-1.165-1.501-0.478C265.417,136.52,262.193,138.374,261.879,138.608z"/>
		<path fill="#FFFFFF" d="M239.095,135.128c0.822,1.681,2.541,4.939,5.728,6.46c3.189,1.523,2.165,1.176,2.629,1.342
			c0.465,0.167,0.824-0.242,1.118-0.844c0.29-0.601,0.504-1.31,0.562-1.671c0.058-0.36-0.177-0.84-1.276-1.22
			c-3.436-1.19-5.45-3.916-6.247-5.06c-0.288-0.415-0.52-1.657-1.291-1.129C239.546,133.533,238.649,134.224,239.095,135.128z"/>
		<path fill="#FFFFFF" d="M263.943,140.884c-0.776,0.419-1.243,0.82-1.701,1.159c-0.185,0.135-1.387,0.667-0.433,1.718
			c0.552,0.608,0.768,0.257,1.636-0.141c0.862-0.398,2.716-2.044,3.714-2.584c0.995-0.542,1.261-0.826,1.792-1.043
			c0.535-0.219,0.652-0.28,0.438-0.947c-0.374-1.153-0.608-1.113-1.04-0.792c-0.707,0.525-1.001,0.622-1.925,1.187
			C265.407,140.065,264.386,140.643,263.943,140.884z"/>
		<path fill="#FFFFFF" d="M238.992,135.762c0.38,1.911,3.389,5.164,5.825,6.474c2.438,1.311,2.148,1.265,2.438,1.311
			c0.285,0.045,0.612,0.467,0.004,1.204c-0.609,0.74-0.477,1.129-0.933,1.52c-0.454,0.391-0.933,0.315-2.009-0.318
			c-1.076-0.631-3.212-1.987-4.247-2.245c-1.039-0.255-1.039-0.255-1.995-0.404c-0.957-0.152-1.42-0.318-1.862-0.016
			c-0.438,0.301-0.537,0.285-1.037-0.257c-0.5-0.541-0.876-1.25-0.313-1.715c0.564-0.468,1.239-2.214,1.179-3.057
			c-0.062-0.844,0.047-2.123,0.242-2.741c0.198-0.616,0.131-0.813,1.021-0.857c0.889-0.045,0.97,0.06,1.164,0.09
			C238.659,134.782,238.992,135.762,238.992,135.762z"/>
		<path fill="#FFFFFF" d="M232.426,136.948c0.804-0.398,0.706-0.723,1.063-1.13c0.361-0.406,1.28-0.631,1.421,0.318
			c0.144,0.948,0.359,2.363,0.097,3.07c-0.259,0.699-0.399,0.957-0.614,1.388c-0.208,0.409-0.321,0.78-1.278,0.63
			c-0.958-0.153-1.242-0.198-1.693-0.453c-0.449-0.257-0.377-0.707-0.195-1.234c0.185-0.528,0.257-0.979,0.137-1.461
			C231.245,137.596,232.001,137.159,232.426,136.948z"/>
		<path fill="#FFFFFF" d="M234.724,134.253c-0.713,0.166-1.609-0.069-2.564,0.707c-0.787,0.636-0.831,0.888-1.204,1.385
			c-0.372,0.497-0.396,1.234-0.496,1.866c-0.102,0.632,0.003,1.204-0.149,1.55c-0.154,0.347-0.376,0.37-0.919,0.226
			c-0.848-0.226-1.241-0.198-1.515-0.332c-0.271-0.136-0.774-0.678-0.388-1.264c0.388-0.587,0.828-2.094,0.706-2.575
			c-0.115-0.481-0.083-1.31-0.479-1.281c-0.397,0.031-0.501-0.541-0.348-0.887c0.152-0.347,0.02-0.74,0.881-0.603
			c0.861,0.135,1.875-0.074,2.058-0.602c0.183-0.526,1.076-1.219,1.66-0.571c0.582,0.648,1.082,1.189,1.738,1.386
			C234.362,133.455,234.724,134.253,234.724,134.253z"/>
		<path fill="#FFFFFF" d="M226.521,130.366c1.178,0,1.537-0.405,2.059-0.603c0.523-0.194,1.323-0.902,1.566-0.585
			c0.291,0.379,0.336,0.331,0.472,0.722c0.133,0.392,0.332,0.979-0.313,1.339c-0.646,0.363-1.513,0.874-2.417,1.008
			c-0.667,0.1-1.18-0.001-1.474-0.603C226.119,131.044,226.027,130.366,226.521,130.366z"/>
		<path fill="#FFFFFF" d="M226.068,134.417c0.485,0.076,1.323,0.301,1.243,1.4c-0.078,1.098-0.194,1.822-0.252,2.183
			c-0.055,0.361-0.186,1.174-0.665,1.098c-0.478-0.076-0.875-0.046-0.875-0.046s-0.009-0.555-0.048-0.932
			c-0.037-0.376-0.002-1.205-0.437-1.551c-0.433-0.347-0.658-1.401-0.396-1.822C224.904,134.325,225.782,134.371,226.068,134.417z"
			/>
		<path fill="#FFFFFF" d="M220.367,134.489c0.67-0.196,1.802-0.828,1.969-1.264c0.171-0.437,0.677-0.541,1.015-0.21
			c0.337,0.331,0.531,0.361,0.679,0.664c0.148,0.3-0.199,0.616-0.49,1.219c-0.294,0.603-0.8,0.706-1.306,0.812
			c-0.508,0.106-0.934,0.316-0.934,0.316s-0.164-0.212-0.52-0.452c-0.351-0.242-0.678-0.663-0.678-0.663
			S219.959,134.61,220.367,134.489z"/>
		<path fill="#FFFFFF" d="M220.293,133.736c0.453-0.39,1.417-0.888,1.417-0.888s1.249-0.451,0.909-0.783
			c-0.338-0.33-0.826-0.963-1.459-0.693c-0.633,0.271-1.438,0.421-1.908,0.904c-0.471,0.48-0.66,0.451-0.528,0.842
			c0.135,0.392-0.196,0.617,0.364,0.799C219.645,134.098,220.293,133.736,220.293,133.736z"/>
		<path fill="#FFFFFF" d="M227.237,129.664c1.174-0.277,1.282-0.521,1.744-0.789c0.758-0.437,0.569-1.279,0.291-1.806
			c-0.38-0.708-0.306-1.16-1.168-1.295c-0.859-0.136-1.819,0.037-2.617,0.743c-0.802,0.708-0.576,0.836-0.227,1.724
			c0.346,0.889,0.221,0.738,0.414,1.086C226.206,130.29,226.901,129.745,227.237,129.664z"/>
		<path fill="#FFFFFF" d="M235.975,144.177c1.04-0.71,5.163,0.813,7.069,1.763c1.907,0.95,2.615,1.431,2.654,1.808
			c0.036,0.376-0.253,0.976-0.659,1.656c-0.4,0.677-0.433,0.856-0.723,1.46c-0.295,0.601-0.322,0.782-1.088,0.66
			c-0.764-0.121-0.915-0.422-1.691-0.452c-0.782-0.029-0.935,0.315-0.183,0.528c0.75,0.212,1.242,0.195,1.501,0.422
			c0.256,0.225,0.487,0.631,0.1,1.22c-0.391,0.588-0.14,0.256-0.449,0.948c-0.306,0.695-1.423,1.534-1.988,0.797
			c-0.567-0.739-3.051-1.778-4.141-2.321c-1.089-0.541-2.113-0.889-1.982-1.702c0.129-0.813,0.547-1.581,0.745-2.197
			c0.197-0.615-0.141-0.947,0.845-0.977c0.983-0.03,1.586-0.12,2.212,0.255c0.627,0.377,2.298,0.364,1.481-0.043
			c-0.82-0.408-0.762-0.77-1.827-0.843c-0.864-0.062-0.972-0.062-1.383,0.059c-0.412,0.121-0.793,0.061-0.855-0.783
			s0.049-0.92,0.023-1.386C235.613,144.582,235.426,144.552,235.975,144.177z"/>
		<path fill="#FFFFFF" d="M220.927,136.198c-0.003,0.325,0.35,0.564,0.825,0.963c0.477,0.401,0.739,0.905,0.665,1.356
			c-0.072,0.452-0.146,1.226,0.551,1.152c0.698-0.074,0.92-0.226,1.372-0.293s1.083-0.336,1.18-0.324
			c0.095,0.016,0.114-1.324,0.04-1.476c-0.074-0.149-0.677-0.06-0.973-0.06c-0.293,0-0.664-0.429-0.852-0.782
			c-0.191-0.355-0.508-0.823-0.772-1.002c-0.266-0.18-0.827-0.039-1.185,0.046C221.422,135.86,220.927,136.198,220.927,136.198z"/>
		<path fill="#FFFFFF" d="M220.178,140.247c-0.366-0.149,0.174-0.76-0.083-1.309c-0.254-0.549-0.204-0.867-0.154-1.18
			c0.052-0.317,0.228-0.798,1.023-0.257c0.797,0.542,0.918,0.701,0.994,1.13c0.079,0.427,0.165,0.812,0.041,0.979
			c-0.127,0.163-0.361,0.406-0.767,0.481C220.83,140.166,220.362,140.324,220.178,140.247z"/>
		<path fill="#FFFFFF" d="M234.73,152.546c1.481,0.624,2.749,1.254,3.274,1.581c0.892,0.559,2.304,1.244,2.655,1.485
			c0.354,0.24,0.88,0.322,0.525,1.008c-0.355,0.686-0.639,0.918-0.896,1.295c-0.254,0.377-1.239,0.403-1.928-0.213
			c-0.684-0.617-3.219-2.22-4.075-2.4c-0.85-0.183-0.755-0.167-1.131-0.273c-0.375-0.105-0.547-0.271-0.321-1.068
			c0.227-0.798,0.191-0.815,0.45-1.272C233.766,151.837,234.665,152.525,234.73,152.546z"/>
		<path fill="#FFFFFF" stroke="#231F20" stroke-width="0.35" d="M228.541,159.625c0.538,0.292,0.613,0.468,0.709,1.087
			c0.098,0.616,0.471,1.044,1.081,0.913c0.608-0.138,1.359-0.528,1.037-1.273c-0.322-0.746-0.711-1.365-1.025-1.552
			c-0.313-0.188-0.738,0.021-1.098,0.105c-0.357,0.082-0.617,0.18-0.828,0.286C228.202,159.295,228.18,159.431,228.541,159.625z"/>
		<path fill="#FFFFFF" d="M223.015,159.231c0.116,1.021-0.419,1.403-0.704,1.959c-0.286,0.56-0.393,0.589-0.624,0.828
			c-0.234,0.242,0.067,0.194,0.449,0.256c0.383,0.061,0.391,0.016,0.579,0.045c0.193,0.03,0.617-0.193,0.841-0.653
			c0.295-0.603,0.433-1.461,0.421-2.299c-0.011-0.578,0.012-0.69-0.302-0.878c-0.313-0.188-0.311-0.171-0.552-0.229
			C222.509,158.118,222.912,158.334,223.015,159.231z"/>
		<path fill="#FFFFFF" d="M224.81,159.363c0.136,0.743-0.057,1.563-0.142,2.104c-0.086,0.546,0.49,0.913,1.284,0.853
			c0.795-0.057,0.93-0.595,1.034-1.547c0.104-0.958,0.11-1.001,0.04-1.477c-0.071-0.476-0.15-0.581-0.604-0.513
			c-0.451,0.067-0.458,0.115-0.929-0.007C225.021,158.653,224.729,158.934,224.81,159.363z"/>
		<path fill="#FFFFFF" d="M228.55,158.054c-0.607,0.229-1.058,0.481-0.667,1.1c0.391,0.617,0.82,1.607,0.947,2.049
			c0.124,0.435,1.247-0.133,1.625-0.35c0.378-0.216,0.986-0.956,0.955-1.375c-0.03-0.423-0.311-1.115-0.637-1.538
			c-0.325-0.421-0.059-0.24-0.325-0.421c-0.265-0.182-0.626-0.376-0.963-0.105C229.147,157.688,228.812,157.956,228.55,158.054z"/>
		<path fill="#FFFFFF" d="M238.76,158.598c-0.628-0.069-0.839-0.269-1.271,0.267c-0.425,0.531-0.606,0.736-0.762,1.081
			c-0.15,0.346-0.117,0.722,0.383,0.986c0.498,0.265,0.831,0.317,1.224,0.009c0.393-0.311,0.864-1.113,0.971-1.467
			C239.411,159.116,239.771,158.711,238.76,158.598z"/>
		<path fill="#FFFFFF" d="M237.18,162.33c-0.609,0.14-0.828-0.038-1.31-0.065c-0.489-0.03-0.68-0.06-1.261,0.495
			c-0.58,0.555-0.966,1.146-0.855,1.669c0.111,0.528,0.39,0.941,1.324,0.905c0.938-0.038,0.938-0.038,1.246-0.125
			c0.31-0.09,0.662-0.454,0.742-0.953c0.079-0.495,0.148-0.619,0.271-1.066C237.448,162.771,237.545,162.252,237.18,162.33z"/>
		<path fill="#FFFFFF" d="M236.166,166.201c-0.431,0.012-1.214-0.055-1.744-0.135c-0.525-0.085-1.208-0.096-1.758,0.275
			c-0.554,0.379-1.774,1.576-0.309,2.224c1.465,0.648,2.646,0.927,3.333,0.618c0.687-0.309,0.764-0.481,0.715-1.089
			c-0.05-0.615,0.055-0.965,0.178-1.41C236.701,166.238,236.413,166.194,236.166,166.201z"/>
		<path fill="#FFFFFF" d="M231.581,169.412c0.652,0.286,1.521,0.613,2.068,0.561c0.547-0.056,1.136-0.056,1.092,0.541
			c-0.047,0.594-0.086,0.817-0.183,1.126c-0.102,0.312-0.374,0.502-0.913,0.785c-0.535,0.288-0.829,0.566-1.557,0.542
			c-1.122-0.038-1.578-0.247-1.596-1.04c-0.021-0.791,0.145-1.225,0.187-1.774C230.716,169.601,231.079,169.195,231.581,169.412z"/>
		<path fill="#FFFFFF" d="M227.922,164.715c0.672,0.107,1.542,0.473,1.565,0.94c0.025,0.466,0.071,0.477-0.09,0.868
			c-0.163,0.395-0.522,1.119-1.156,0.79c-0.632-0.334-1.182-0.279-1.622,0.022c-0.438,0.299-1.136,0.653-1.634,0.388
			c-0.495-0.264-0.562-0.458,0.051-0.919c0.614-0.457,0.935-0.914,1.339-1.314C226.783,165.092,226.87,164.548,227.922,164.715z"/>
		<path fill="#FFFFFF" d="M228.327,168.624c-0.041-0.76-1.405-1.336-1.927-0.536c-0.52,0.798-0.735,1.225-0.249,1.86
			c0.485,0.63,0.444,0.9,0.397,1.498c-0.048,0.594-0.007,0.646-0.152,0.948c-0.146,0.303,0.199,0.588,0.862,0.138
			c0.658-0.451,0.71-0.771,1.253-1.1c0.541-0.332,1.195-0.415,0.938-0.963c-0.254-0.552-0.281-0.372-0.563-0.784
			C228.612,169.27,228.339,168.856,228.327,168.624z"/>
		<path fill="#FFFFFF" d="M224.656,170.728c-0.555-0.443-0.759-0.489-1.5-0.469c-0.737,0.022-1.459,0.561-1.451,1.117
			c0.01,0.555,0.244,0.917,0.705,1.409c0.462,0.489,0.657,0.797,0.695,1.173c0.035,0.377,0.033,0.699,0.776,0.356
			c0.74-0.351,1.082-0.62,1.416-0.889c0.339-0.272,0.68-0.868,0.411-1.325C225.438,171.64,224.871,170.905,224.656,170.728z"/>
		<path fill="#FFFFFF" d="M222.463,174.597c-0.229-0.466-0.444-0.903-1.115-0.686c-0.674,0.22-1.066,0.529-1.028,0.903
			c0.039,0.379,0.029,0.747,0.032,1.024c0.004,0.279,0.114,0.807,0.755,0.491c0.638-0.319,1.039-0.67,1.219-0.873
			C222.507,175.252,222.538,174.749,222.463,174.597z"/>
		<path fill="#FFFFFF" d="M224.125,175.229c0.524,0.215,1.018,0.392,1.392,0.498c0.378,0.105,0.787,0.307,0.508,0.822
			c-0.279,0.51-0.584,0.879-1.059,1.08c-0.474,0.205-1.041,0.392-1.513,0.275c-0.473-0.125-1.083,0.012-0.826-0.965
			c0.255-0.979,0.302-0.971,0.518-1.4C223.362,175.11,223.573,175.003,224.125,175.229z"/>
		<path fill="#FFFFFF" d="M224.456,174.404c1.108,0.729,2.173,1.128,2.892,1.24c0.716,0.115,1.141-0.099,1.494-0.784
			c0.357-0.682,0.364-1.329,0.515-1.675c0.156-0.346,0.139-0.86-0.482-0.957c-0.621-0.097-2.219-0.536-2.589-0.688
			c-0.367-0.146-0.896-0.511-1.296,0.444c-0.398,0.96-0.34,0.92-0.531,1.494C224.267,174.048,223.998,174.192,224.456,174.404"/>
		<path fill="#FFFFFF" d="M226.671,178.316c-0.729,0.187-0.858,0.144-1.582,0.077c-0.724-0.067-2.218,0.992-1.143,1.625
			c1.075,0.633,1.45,0.737,1.771,0.88c0.32,0.145,0.55-0.376,0.829-0.887c0.276-0.512,0.43-0.858,0.56-1.35
			C227.233,178.171,227.233,178.171,226.671,178.316z"/>
		<path fill="#FFFFFF" d="M222.242,179.332c0.508,0.662,1.132,1.2,1.78,1.436c0.646,0.244,0.891,0.561,0.805,1.099
			c-0.088,0.544-0.104,0.634-0.404,1.002c-0.308,0.369-0.753,0.717-1.895,0.168c-1.134-0.55-1.319-0.629-1.644-1.05
			c-0.323-0.421-0.351-0.561-0.051-1.212c0.3-0.646,0.505-0.705,0.601-1.291C221.529,178.893,221.877,178.857,222.242,179.332z"/>
		<path fill="#FFFFFF" d="M235.291,171.666c-0.405,0.503-0.437,0.579-0.614,1.059c-0.176,0.483-0.288,0.885-1.039,0.997
			c-0.756,0.112-1.465-0.048-1.738,0.745c-0.274,0.789-0.095,0.586-0.153,0.948c-0.056,0.359,0.142,0.948,1.038,0.857
			c0.899-0.087,1.604-0.209,2.107-0.593c0.501-0.385,0.778-0.574,0.799-1.312c0.021-0.735-0.089-0.985,0.112-1.924
			C236.002,171.5,235.719,171.132,235.291,171.666z"/>
		<path fill="#FFFFFF" d="M231.577,167.006c-0.403-0.41-0.57-0.74-1.175-0.323c-0.605,0.41-0.912,0.782-1.031,1.223
			c-0.121,0.444-0.222,1.08,0.231,1.61c0.454,0.539,0.956,0.156,1.457-0.511C231.556,168.344,231.955,167.39,231.577,167.006z"/>
		<path fill="#FFFFFF" d="M232.089,156.479c-0.417-0.157-0.51-0.493-1.027-0.022c-0.517,0.476-0.936,0.641-0.613,1.062
			c0.325,0.421,1.22,0.656,1.326,0.904c0.111,0.249,1.303-1.092,1.303-1.092L232.089,156.479z"/>
		<path fill="#FFFFFF" d="M263.952,144.342c0.873-0.35,1.49-1.032,2.114-1.752c0.629-0.723,1.986-1.434,2.447-1.713
			c0.463-0.278,0.907-0.474,1.152-0.676c0.247-0.2,0.821-0.146,1.139,0.332c0.318,0.475,0.416,0.675,0.487,0.958
			c0.076,0.283-0.101,0.589-0.721,1.093c-0.619,0.504-1.305,1.079-1.801,1.48c-0.497,0.404-1.793,1.264-2.097,1.495
			c-0.303,0.23-0.696,0.535-1.011,0.888c-0.48,0.537-1.107,0.511-1.368,0.182c-0.259-0.33-0.515-0.486-0.794-0.906
			C263.253,145.354,262.811,144.801,263.952,144.342z"/>
		<path fill="#FFFFFF" d="M265.966,146.815c1.014-0.83,3.236-2.862,4.459-3.736c1.224-0.87,1.653-1.184,2.116-0.454
			c0.462,0.73,0.566,0.709,0.653,1.155c0.085,0.448,0.234,0.438-0.475,0.872c-0.714,0.436-1.725,1.262-2.304,1.966
			c-0.582,0.704-1.011,1.396-1.768,2.009c-0.758,0.61-0.605,0.413-0.921,0.663c-0.311,0.25-0.742,0.568-1.096,0.194
			c-0.356-0.372-0.91-0.938-1.064-1.307C265.381,147.732,265.362,147.312,265.966,146.815z"/>
		<path fill="#FFFFFF" d="M268.589,149.648c0.641-0.651,1.774-2.052,2.365-2.801c0.593-0.746,1.583-1.486,2.12-1.822
			c0.535-0.337,1.039-0.161,1.62,0.504c0.576,0.664,1.192,1.575,1.793,1.961c0.601,0.389,1.06,0.741,0.326,1.453
			c-0.732,0.712-2.555,3.13-2.982,4.013c-0.425,0.883-0.54,1.138-0.747,1.558c-0.21,0.418-0.561,0.615-0.947,0.376
			c-0.388-0.243-0.634-0.446-0.906-0.75c-0.273-0.306-0.729-0.657-0.026-1.848c0.705-1.19,1.296-2.124,1.712-2.774
			c0.421-0.651,0.5-0.961-0.363-0.33c-0.861,0.632-1.432,1.291-1.861,1.984c-0.427,0.695-0.484,0.727-0.599,0.98
			c-0.117,0.255-0.406,0.417-0.796,0.178c-0.389-0.241-0.884-0.836-1.189-1.198C267.799,150.771,267.844,150.404,268.589,149.648z"
			/>
		<path fill="#FFFFFF" d="M277.378,149.276c0.402-0.601,0.919-0.856,1.437-0.535c0.516,0.318,0.694,0.41,0.999,0.583
			c0.306,0.169,0.658,0.353,0.076,1.056c-0.579,0.702-0.963,1.032-1.075,1.475c-0.114,0.444,0.338,1.406,1.081,0.65
			c0.744-0.756,0.896-0.954,1.008-1.586c0.113-0.632,0.264-1.019,0.813-0.833c0.553,0.187,0.891,0.226,1.255,0.177
			c0.361-0.051,1.348,0.01,1.153,0.951c-0.191,0.944-0.799,2.087,0.426,3.6c0.719,0.889,1.164,0.909,0.986,2.183
			c-0.064,0.457-0.393,1.131-0.932,1.089c-0.782-0.06-0.422-0.295-1.252-0.177c-0.831,0.122-1.998,0.583-2.616,1.228
			c-0.613,0.646-0.638,0.734-0.963,1.03c-0.326,0.294-0.936,0.333-1.255-0.177c-0.319-0.503-0.41-0.336-0.777-0.856
			c-0.368-0.517-0.779-0.48,0.073-1.256c0.847-0.772,1.665-1.231,2.153-1.578c0.49-0.347,0.746-0.567,0.731-1.09
			c-0.017-0.521,0.076-0.877-0.476-0.685c-0.549,0.189-1.189,0.36-1.58,0.119c-0.388-0.238-0.671-0.689-1.276-0.087
			c-0.604,0.604-0.578,0.704-0.961,1.409c-0.38,0.706-0.334,0.718-0.462,1.018c-0.127,0.298-0.393,0.75-0.983,0.127
			c-0.587-0.621-0.763-0.523-1.069-0.885c-0.309-0.359-0.219-0.713,0.254-1.964c0.47-1.25,0.519-1.237,1.073-2.041
			c0.558-0.803,1-1.353,1.371-1.825C276.961,149.923,277.296,149.396,277.378,149.276z"/>
		<path fill="#FFFFFF" d="M284.826,151.015c0.112,0.942-0.005,0.99-0.067,1.823c-0.065,0.834,0.054,0.958,0.676,1.447
			c0.623,0.488,1.375,0.489,1.826-0.106c0.453-0.592,0.577-1.459,0.333-2.464c-0.244-1.005-0.232-1.238-0.346-1.551
			c-0.124-0.314-0.301-0.407-0.803-0.203c-0.503,0.205-0.503,0.205-0.946,0.186C285.053,150.128,284.764,150.479,284.826,151.015z"
			/>
		<path fill="#FFFFFF" d="M288.431,149.048c0.538-0.147,0.955-0.609,1.281,0.653c0.327,1.263,0.108,0.738,0.327,1.263
			c0.213,0.527,0.462,1.108,1.318,1.466c0.859,0.359,1.568,1.292,0.787,1.994c-0.778,0.699-1.438,1.712-1.726,2.44
			c-0.29,0.73-0.31,0.82-0.415,1.027c-0.104,0.213-0.512,0.438-0.972,0.276c-0.458-0.164-0.855-0.169-1.275-0.277
			c-0.423-0.105-0.717-0.133-0.464-1.108c0.248-0.974,0.343-1.142,0.791-1.921c0.452-0.786,0.563-1.795,0.192-2.69
			c-0.369-0.896-0.522-1.266-0.554-1.933c-0.024-0.668,0.251-0.975,0.614-1.213"/>
		<path fill="#FFFFFF" d="M293.689,154.245c-0.755,0.573-2.107,1.78-2.54,3.086c-0.438,1.306-0.265,0.831-0.391,1.13
			c-0.127,0.296-0.327,0.485-0.053,0.977c0.273,0.494,0.284,0.448,0.472,0.689c0.189,0.233,0.67,0.118,1.136-0.141
			s0.571-0.47,0.885-0.72c0.315-0.252,0.605-0.791,0.669-1.435c0.067-0.646,0.426-1.451,0.761-1.792
			c0.339-0.339,0.629-0.502,0.402-0.984c-0.226-0.481-0.565-0.707-0.661-0.92C294.271,153.921,293.876,154.104,293.689,154.245z"/>
		<path fill="#FFFFFF" d="M293.716,161.144c-0.547-0.432-0.997-0.582-1.51-0.334c-0.518,0.247-0.679,0.3-0.277,1.062
			c0.404,0.763,0.485,0.64,0.511,1.119c0.027,0.481-0.379,0.896,0.755,0.57c1.134-0.327,2.13-0.503,2.726-0.305
			c0.601,0.2,0.789,0.247,0.76-0.232c-0.026-0.478-0.229-0.86-0.289-1.205c-0.063-0.344-0.288-0.715-0.776-0.479
			C294.586,161.837,294.423,161.699,293.716,161.144z"/>
		<path fill="#FFFFFF" d="M295.496,156.354c-0.928,1.025-1.271,2.948-0.521,3.975c0.592,0.809,1.315,0.709,1.55,0.391
			c0.231-0.319,0.417-0.462,0.589-0.559c0.177-0.098,0.257-0.406,0.23-0.885c-0.025-0.478,0.21-1.786,0.49-2.096
			c0.276-0.308,0.617-0.457,0.168-0.667c-0.446-0.205-0.846-0.399-1.29-0.608C296.263,155.7,295.706,156.123,295.496,156.354z"/>
		<path fill="#FFFFFF" d="M298.521,157.025c-0.322,0.487-0.577,1.079-0.665,1.624c-0.091,0.543,0.146,0.982,0.616,1.102
			c0.469,0.117,1.006-0.031,1.203-0.593c0.19-0.563,0.493-1.336,0.749-1.557c0.255-0.219,0.185-0.522-0.285-0.64
			s-0.26-0.159-0.647-0.208c-0.386-0.052-0.818-0.113-0.946,0.184"/>
		<path fill="#FFFFFF" d="M292.132,147.483c0.169,0.891,0.583,1.23,1.04,1.583c0.461,0.352,0.581,0.665,0.454,1.152
			c-0.124,0.486-0.215,1.032-0.917,1.042c-0.703,0.01-1.384-0.067-1.704-0.763c-0.322-0.692-0.759-1.323-0.819-1.669
			c-0.062-0.345-0.076-0.867,0.543-1.326c0.613-0.456,0.639-0.355,0.988-0.55s0.457-0.027,0.438,0.44"/>
		<path fill="#FFFFFF" d="M295.281,150.967c-0.314-0.316-0.543-0.607-0.936-0.236c-0.396,0.371-0.78,0.699-1.037,1.106
			c-0.254,0.408-0.299,0.583,0.103,0.97c0.4,0.384,0.529,0.653,1.021,0.305c0.487-0.347,1.034-0.919,1.303-1.182
			c0.267-0.262,0.488-0.537,0.498-0.77c0.012-0.232-0.082-0.067-0.351,0.005C295.612,151.239,295.281,150.967,295.281,150.967z"/>
		<path fill="#FFFFFF" d="M280.717,160.974c-0.48,0.341-0.558,0.615-0.06,1.398c0.496,0.788,0.661,0.925,0.921,1.271
			c0.262,0.352,0.485,0.833,1.091,0.419c0.608-0.414,1.377-0.88,1.994-1.149c0.621-0.267,1.752-0.519,2.21-0.621
			c0.797-0.177,0.827-0.688,0.509-1.001c-0.318-0.32-0.733-1.039-0.878-1.45c-0.14-0.415-0.438-0.633-1.043-0.405
			c-0.608,0.222-0.886,0.721-1.463,0.242c-0.578-0.476-1.185-0.487-1.791-0.028C281.461,160.218,280.961,160.801,280.717,160.974z"
			/>
		<path fill="#FFFFFF" d="M286.01,164.103c-0.743,0.527-0.991,0.552-0.589,1.317c0.404,0.761,0.568,0.897,0.891,1.592
			c0.32,0.695,0.498,0.975,1.409,0.734c0.912-0.241,1.259-0.627,1.823-0.482c0.565,0.139,0.833,0.259,0.948,0.002
			c0.217-0.477-0.334-1.027-0.488-1.396c-0.197-0.465-0.549-0.99-0.811-1.528c-0.261-0.536-0.532-1.032-1.467-0.891
			C286.789,163.591,286.252,163.93,286.01,164.103z"/>
		<path fill="#FFFFFF" d="M284.739,168.268c0.71,0.276,1.055,0.172,1.631,0.269c0.572,0.098,1.074,0.082,1.233,0.833
			c0.158,0.748,0.536,1.219,0.364,1.695c-0.173,0.474-0.102,0.774-0.769,0.844c-0.666,0.068-0.748,0-1.085,0.151
			c-0.34,0.149-0.75,0.187-0.907-0.369c-0.158-0.559-0.576-1.848-0.873-2.442C284.039,168.656,284.059,167.999,284.739,168.268z"/>
		<path fill="#FFFFFF" d="M290.842,168.627c-0.566,0.111-1.041,0.163-1.403,0.404c-0.36,0.239-1.036,0.538-0.495,1.149
			c0.545,0.605,0.358,0.938,0.75,1.555c0.392,0.62,1.163,0.91,1.606,0.551c0.443-0.362,0.899-0.766,1.166-0.841
			c0.268-0.075,0.644-0.17,0.276-0.875c-0.37-0.706-0.865-1.301-1.079-1.644C291.451,168.592,291.051,168.59,290.842,168.627z"/>
		<path fill="#FFFFFF" d="M291.25,183.174c0.489-0.162,1.119-0.663,1.128,0.285c0.002,0.565,0.059,0.343,0.098,0.78
			c0.036,0.434,0.005,0.947-0.483,1.101c-0.772,0.252-1.298,0.382-1.817,0.252c-0.515-0.131-0.981-0.252-0.999-0.959
			c-0.017-0.714,0.054-0.601,0.041-0.935c-0.016-0.335,0.157-0.621,0.663-0.446C290.385,183.426,291.087,183.227,291.25,183.174z"/>
		<path fill="#FFFFFF" d="M283.673,169.966c0.557,0.319,1.563,0.497,0.633,1.228c-0.563,0.438-0.294,0.321-0.693,0.686
			c-0.402,0.371-0.935,0.731-1.49,0.419c-0.874-0.502-1.434-0.875-1.719-1.436c-0.291-0.561-0.552-1.072,0.141-1.638
			c0.693-0.558,0.639-0.41,0.96-0.681c0.318-0.267,0.744-0.332,0.983,0.254C282.72,169.386,283.488,169.86,283.673,169.966z"/>
		<path fill="#FFFFFF" d="M290.618,176.878c0.492-0.161,1.11-0.235,1.11-0.235s0.167,0.135,0.137,0.643
			c-0.033,0.514-0.033,0.514,0.03,1.047c0.06,0.537,0.189,0.424-0.429,0.693c-0.62,0.271-1.674,0.286-1.979,0.302
			c-0.302,0.017,0.128-0.297,0.128-0.297l0.702-1.757c0,0,0.463-0.637,0.381-0.516"/>
		<path fill="#FFFFFF" d="M287.838,172.542c0.732-0.044,2.77,0.891,1.697,1.561c-1.073,0.672-1.259,0.814-0.664,0.825
			c0.601,0.007,1.244,0.219,1.551,0.578c0.308,0.364,0.579,0.666,0.64,1.01c0.062,0.35-0.03,0.514-0.38,0.708
			c-0.353,0.197-0.515,0.438-0.515,0.438s-0.307-0.551-1.045-0.784c-0.74-0.235-1.208-0.355-1.772-0.12
			c-0.561,0.238-1.048,0.775-1.076-0.08c-0.028-0.858,0.236-1.498-0.178-2.029c-0.414-0.526-0.826-0.867-0.104-1.349
			C286.715,172.824,287.688,172.55,287.838,172.542z"/>
		<path fill="#FFFFFF" d="M293.024,172.577c-0.465,0.451-0.534,0.526-0.837,0.73c-0.304,0.209-0.388,0.143-0.945,0.566
			c-0.561,0.426-0.989,0.74-0.624,1.259c0.368,0.519,0.677,0.877,0.807,1.146c0.127,0.271,0.19,0.427,0.611,0.723
			c0.426,0.297,0.968,0.526,1.465-0.247c0.514-0.795,0.915-1.042,1.384-1.3c0.776-0.432,0.565-0.849,0.26-1.207
			c-0.308-0.363-0.651-0.968-0.9-1.364C293.995,172.492,293.238,172.371,293.024,172.577z"/>
		<path fill="#FFFFFF" d="M287.171,177.66c0.811,0.347,1.386,0.443,1.9,0.763c0.52,0.319,0.978,0.482,0.525,1.074
			c-0.24,0.315-0.08,0.31-0.324,0.676c-0.243,0.364-0.486,0.915-1.192,0.36c-0.536-0.424-1.306-0.753-1.749-0.772
			c-0.445-0.019-0.927-0.283-0.709-0.936c0.218-0.652,0.416-0.839,0.542-1.136C286.291,177.391,286.676,177.439,287.171,177.66z"/>
		<path fill="#FFFFFF" d="M286.142,181.079c0.845,0.405,1.259,0.744,1.622,1.073c0.366,0.325,0.332,0.458,0.16,0.748
			c-0.178,0.284-0.511,1.004-0.625,1.255c-0.115,0.255-0.377-0.094-0.929-0.66c-0.554-0.561-1.098-0.985-1.528-1.045
			c-0.435-0.062-1.111,0.237-0.776-0.291c0.336-0.531,0.552-0.675,0.765-1.034C285.094,180.674,285.295,180.674,286.142,181.079z"/>
		<path fill="#FFFFFF" d="M291.008,180.422c0.493-0.16,1.119-0.661,1.126,0.284c0.005,0.566,0.061,0.347,0.1,0.78
			c0.037,0.437,0.007,0.944-0.487,1.104c-0.767,0.252-1.293,0.382-1.81,0.252c-0.519-0.133-0.988-0.252-1.004-0.962
			c-0.017-0.712,0.057-0.601,0.04-0.934c-0.013-0.334,0.162-0.622,0.666-0.446C290.142,180.674,290.845,180.474,291.008,180.422z"/>
		<path fill="#FFFFFF" d="M295.859,176.127c-0.945,0.434-1.634,0.717-2.106,1.401c-0.478,0.682-0.559,0.994-0.142,1.712
			c0.414,0.717,0.803,1.144,0.803,1.144s0.161-0.618,0.612-1.212c0.452-0.593,1.223-1.062,1.62-1.242
			c0.396-0.181,0.828-0.122,0.91-0.054c0.083,0.067-0.001-0.19-0.342-0.606c-0.344-0.418-0.423-0.486-0.592-0.81
			C296.455,176.135,296.255,175.945,295.859,176.127z"/>
		<path fill="#FFFFFF" d="M296.186,139.491c0.673,0.076,0.775,0.29,1.321,0.099c0.549-0.191,1.044-0.351,1.326,0.1
			c0.281,0.448,0.428,0.862,0.288,1.204c-0.138,0.343-0.122,0.693-0.896,0.765c-0.407,0.039-0.981,0.13-1.649,0.008
			c-0.384-0.068-0.953-0.193-0.848-0.592c0.102-0.4,0.077-0.687,0.026-1.079C295.706,139.607,295.845,139.452,296.186,139.491z"/>
		<path fill="#FFFFFF" d="M296.72,142.458c0.727,0.095,1.079,0.273,1.571,0.113c0.488-0.157,0.64-0.355,0.923-0.285
			c0.282,0.07,0.538,0.042,0.59,0.621c0.05,0.58-0.052,0.979,0.234,1.428c0.281,0.447,0.352,0.373,0.495,0.597
			c0.141,0.223,0.083,0.257-0.044,0.555c-0.127,0.3-0.187,0.142-0.677,0.491c-0.49,0.347-0.954,0.608-1.261,0.246
			c-0.309-0.359-0.638-0.631-1.187-0.63c-0.554,0.001-1.26-0.45-1.705-0.76c-0.424-0.296-0.743-0.613-0.336-1.408
			c0.295-0.586,0.228-0.508,0.425-0.884C295.946,142.168,296.334,142.407,296.72,142.458z"/>
		<path fill="#FFFFFF" d="M302.458,142.116c-0.776-0.291-2.217-0.137-1.763,1.207c0.456,1.341,0.454,0.962,0.583,1.233
			c0.131,0.268,0.588,0.244,0.867-0.065c0.277-0.307,0.463-0.45,0.813-0.645c0.352-0.193,0.77-0.466,0.381-0.893
			C302.952,142.522,302.458,142.116,302.458,142.116z"/>
		<path fill="#FFFFFF" d="M300.472,146.334c-0.661-0.408-1.286,0.524-1.571,1.065c-0.292,0.54-0.525,0.669-0.016,1.221
			c0.505,0.555,0.411,0.342,0.717,0.513s0.799,0.014,0.816-0.455c0.02-0.466,0.124-0.863,0.355-1.184
			c0.23-0.317,0.43-0.505,0.251-0.786C300.848,146.427,300.602,146.412,300.472,146.334z"/>
		<path fill="#FFFFFF" d="M295.123,145.17c0.57,0.637,0.957,1.138,1.683,1.229c0.728,0.086,0.962,0.146,1.243,0.217
			c0.282,0.073,0.626,0.679,0.115,1.116c-0.514,0.438-0.675,0.679-0.802,0.976c-0.126,0.298-0.244,0.364-0.805,0.601
			c-0.559,0.235-1.481,0.521-1.688-0.05c-0.202-0.569-1.095-0.983-1.391-1.2c-0.293-0.216-0.576-0.666-0.778-1.047
			c-0.202-0.382,0.075-0.877,0.471-1.25c0.803-0.757,0.63-0.502,0.932-0.708C294.407,144.846,294.852,144.865,295.123,145.17z"/>
		<path fill="#FFFFFF" d="M297.226,149.24c-0.795,0.218-1.117,0.661-1.115,1.228c0.005,0.847-0.076,0.69,0.438,0.631
			c0.516-0.06,0.525-0.103,0.875-0.297c0.354-0.197,0.537-0.148,1.02-0.263c0.477-0.116,0.792-0.366,0.874-0.487
			c0.081-0.123-0.249-0.204-0.765-0.525C298.033,149.209,297.495,149.166,297.226,149.24z"/>
		<path fill="#FFFFFF" d="M301.002,148.543c0.143-0.549,0.462-0.827,1.108-0.617c0.646,0.212,0.932,0.375,0.687,1.023
			c-0.311,0.819-0.116,0.253-0.402,0.983c-0.186,0.471,0.099,0.592-0.489,0.538c-0.583-0.055-0.867-0.126-1.066-0.319
			c-0.201-0.191-0.236-0.246-0.147-0.601C300.787,149.196,300.924,148.854,301.002,148.543z"/>
		<path fill="#FFFFFF" d="M296.382,163.799c-0.89-0.035-1.5-0.19-2.013,0.059c-0.515,0.245-1.271,1.216-0.039,1.312
			c0.538,0.04,1.25-0.023,1.558-0.032c0.655-0.022,1.078,0.274,1.078,0.274s0.376,0.094,0.174-0.476
			C296.934,164.364,296.992,163.955,296.382,163.799"/>
		<path fill="#F0D1C5" d="M233.557,157.408c-1.267,1.188-3.628,1.836-4.435,1.987c-0.811,0.15-3.024,1.097-3.83,1.247
			c-0.81,0.149-1.458-0.319-1.547,0.223c-0.084,0.543,0.155,2.334,0.083,2.789c-0.073,0.453,0.073,0.453,1.72,0.271
			c1.247-0.137,2.478-0.163,3.493-0.375s3.771-0.888,4.636-1.399c0.867-0.51,2.232-1.685,2.511-2.199"/>
		<path fill="#FFFFFF" d="M233.253,156.852c0.918,0.097,2.629,0.739,3.033,1.265c0.405,0.525,0.537,1.242,0.244,1.846
			c-0.293,0.6-0.374,0.495-0.726,0.856c-0.354,0.359-0.313,0.414-0.711,0.769c-0.399,0.351-0.855,0.742-1.475,0.921
			c-0.615,0.183-1.205,0.183-1.185-0.556c0.02-0.738-0.318-1.994-0.628-2.505c-0.309-0.512-0.377-0.709-0.674-0.986
			c-0.3-0.277,0.039-0.55,0.539-0.934C232.177,157.143,232.934,156.707,233.253,156.852"/>
		<path fill="#FFFFFF" d="M227.473,161.406c0.257,0.421,0.259,0.824,0.198,1.51c-0.06,0.688,0.148,1.23,0.854,1.109
			c0.707-0.123,0.793-0.061,1.268-0.263c1.335-0.574,0.394-1.601,0.487-1.499c0.579,0.648-0.775-0.677-0.902-1.114
			c-0.127-0.437-0.341-0.935-0.942-0.842c-0.604,0.087-0.802,0.103-1.023,0.255C227.191,160.712,227.162,160.892,227.473,161.406z"
			/>
		<path fill="#FFFFFF" d="M226.586,161.123c0.069,0.675-0.027,1.709-0.123,2.298c-0.095,0.586-0.254,0.653-0.72,0.812
			c-0.466,0.158-0.862,0.188-0.739-0.58c0.122-0.767,0.147-2.153-0.121-2.612c-0.267-0.461-0.425-0.717,0.22-0.753
			c0.644-0.04,0.5-0.08,0.744-0.067C226.285,160.243,226.548,160.75,226.586,161.123z"/>
	</g>
	<path fill="#FFFFFF" stroke="#FFFFFF" stroke-width="0.35" d="M219.99,130.726c0.446-0.191,1.286-0.076,1.286-0.076
		s-0.16-0.211-0.473-0.723c-0.309-0.51-0.749-1.413-1.604-0.992c-0.854,0.421-1.373,0.616-1.667,1.218
		c-0.293,0.602-0.717,0.813-0.121,1.37c0.597,0.558,0.811,1.054,1.197,0.467C219.001,131.404,219.676,130.861,219.99,130.726z"/>
	<path fill="#FFFFFF" d="M219.291,136.914c0.199,0.458,0.066,0.518,0.049,0.93c-0.021,0.417-0.112,0.681,0.167,1.094
		c0.276,0.414,0.24,0.64,0.197,0.91c-0.044,0.272,0.064,0.521-0.403,0.678c-0.467,0.159-0.784,0.294-0.979,0.31
		c-0.2,0.014-0.467-0.167-0.315-0.792c0.149-0.624,0.104-1.882-0.218-2.305c-0.326-0.419-0.649-0.563-0.918-0.699
		c-0.273-0.136,0.009-0.37,0.517-0.475c0.508-0.105,0.658-0.127,1.008-0.164C218.742,136.364,219.187,136.664,219.291,136.914z"/>
	<path fill="#FFFFFF" stroke="#FFFFFF" stroke-width="0.35" d="M214.82,137.273c0.562,0.278,1.056,0.554,1.368,1.296
		c0.356,0.844,0.511,1.421,0.273,1.984c-0.238,0.566-0.677,0.806-1.073,1.115c-0.392,0.31,0.297,0,0.716-0.167
		c0.415-0.165,1.063-0.525,1.201-1.061c0.131-0.534,0.108-1.603-0.139-2.196c-0.25-0.595-0.437-0.95-0.744-1.183
		c-0.305-0.233-0.353-0.242-0.709-0.16C215.359,136.988,214.687,137.206,214.82,137.273z"/>
	<path fill="#FFFFFF" d="M217.707,170.93c0.068,0.69,0.17,1.092,0.545,1.797c0.379,0.711,0.889,0.883,1.327,0.906
		c0.437,0.024,0.779,0.03,1.055-0.158c0.272-0.188,0.57-0.51,0.293-0.924c-0.276-0.414-0.633-0.935-0.626-1.583
		c0.004-0.646-0.073-1.074-0.615-1.07c-0.54,0.007-0.875-0.044-1.333,0.07C217.893,170.08,217.669,170.554,217.707,170.93z"/>
	<path fill="#FFFFFF" stroke="#FFFFFF" stroke-width="0.35" d="M216.472,172.817c-0.098,0.605,0.175,1.046-0.324,1.108
		c-0.499,0.06-1.109-0.129-1.401-0.129c-0.295,0-0.431-0.068-0.402-0.848c0.028-0.785-0.014-1.441,0.496-1.869
		c0.509-0.43,1.245-0.731,1.533-0.083c0.289,0.648,0.267,0.459,0.204,0.867C216.511,172.269,216.52,172.503,216.472,172.817z"/>
	<path fill="#FFFFFF" d="M216.902,175.018c0.5,0.338,0.697,0.849,0.783,1.236c0.084,0.381,0.402,0.85,0.732,0.947
		c0.327,0.098,0.992-0.076,1.167-0.559c0.174-0.481,0.376-1.423-0.078-1.954c-0.455-0.537-0.862-0.741-1.089-0.868
		c-0.223-0.13-0.409-0.204-0.853,0.139c-0.45,0.347-0.552,0.382-0.82,0.521C216.479,174.626,216.638,174.835,216.902,175.018z"/>
	<path fill="#FFFFFF" d="M214.566,177.057c-0.234-0.958,1.119-2.095,1.86-0.91c0.743,1.181,0.569,0.736,0.743,1.181
		c0.172,0.444,0.254,0.549-0.218,0.753c-0.474,0.202-0.956,0.449-1.271,0.587c-0.314,0.137-0.773-0.076-0.905-0.464
		C214.64,177.81,214.626,177.299,214.566,177.057z"/>
</g>
<g>
	<path fill="#FFFFFF" d="M228.474,98.51"/>
	<g>
		<path fill="#231F20" d="M228.473,98.56c0.064,0,0.066-0.1,0.002-0.1S228.408,98.56,228.473,98.56L228.473,98.56z"/>
	</g>
</g>
<path fill="#FFFFFF" d="M259.163,91.063c0,0.667-0.678,1.208-1.517,1.208c0,0-2.025,0.463-4.135,0.421
	c-2.112-0.043-3.974-0.421-3.974-0.421c-0.837,0-1.517-0.542-1.517-1.208v-1.578c0-0.668,0.68-1.209,1.517-1.209
	c0,0,2.178,0.421,4.183,0.421s3.926-0.421,3.926-0.421c0.839,0,1.517,0.541,1.517,1.209V91.063z"/>
<path fill="#FFFFFF" d="M259.163,86.01c0,0.667-0.678,1.209-1.517,1.209c0,0-2.025,0.462-4.135,0.421
	c-2.112-0.042-3.974-0.421-3.974-0.421c-0.837,0-1.517-0.542-1.517-1.209v-1.578c0-0.668,0.68-1.209,1.517-1.209
	c0,0,2.178,0.421,4.183,0.421s3.926-0.421,3.926-0.421c0.839,0,1.517,0.541,1.517,1.209V86.01z"/>
<path fill="#FFFFFF" d="M259.163,80.957c0,0.667-0.678,1.209-1.517,1.209c0,0-2.025,0.462-4.135,0.42
	c-2.112-0.042-3.974-0.42-3.974-0.42c-0.837,0-1.517-0.542-1.517-1.209v-1.578c0-0.668,0.68-1.208,1.517-1.208
	c0,0,2.178,0.42,4.183,0.42s3.926-0.42,3.926-0.42c0.839,0,1.517,0.541,1.517,1.208V80.957z"/>
<path fill="#FFFFFF" d="M259.163,75.543c0,0.667-0.678,1.209-1.517,1.209c0,0-2.025,0.462-4.135,0.42
	c-2.112-0.042-3.974-0.42-3.974-0.42c-0.837,0-1.517-0.542-1.517-1.209v-1.578c0-0.668,0.68-1.209,1.517-1.209
	c0,0,2.178,0.42,4.183,0.42s3.926-0.42,3.926-0.42c0.839,0,1.517,0.541,1.517,1.209V75.543z"/>
<path fill="#FFFFFF" d="M259.163,96.193c0,0.668-0.678,1.209-1.517,1.209c0,0-2.025,0.463-4.135,0.42
	c-2.112-0.042-3.974-0.42-3.974-0.42c-0.837,0-1.517-0.541-1.517-1.209v-1.578c0-0.668,0.68-1.208,1.517-1.208
	c0,0,2.178,0.421,4.183,0.421s3.926-0.421,3.926-0.421c0.839,0,1.517,0.541,1.517,1.208V96.193z"/>
<path fill="#FFFFFF" d="M259.163,101.204c0,0.667-0.678,1.208-1.517,1.208c0,0-2.025,0.463-4.135,0.421
	c-2.112-0.042-3.974-0.421-3.974-0.421c-0.837,0-1.517-0.541-1.517-1.208v-1.579c0-0.667,0.68-1.208,1.517-1.208
	c0,0,2.178,0.42,4.183,0.42s3.926-0.42,3.926-0.42c0.839,0,1.517,0.542,1.517,1.208V101.204z"/>
<path fill="#FFFFFF" d="M259.163,106.389c0,0.668-0.678,1.209-1.517,1.209c0,0-2.025,0.462-4.135,0.42
	c-2.112-0.042-3.974-0.42-3.974-0.42c-0.837,0-1.517-0.541-1.517-1.209v-1.578c0-0.667,0.68-1.208,1.517-1.208
	c0,0,2.178,0.42,4.183,0.42s3.926-0.42,3.926-0.42c0.839,0,1.517,0.541,1.517,1.208V106.389z"/>
<path fill="#FFFFFF" d="M259.163,111.518c0,0.667-0.678,1.209-1.517,1.209c0,0-2.025,0.462-4.135,0.42
	c-2.112-0.041-3.974-0.42-3.974-0.42c-0.837,0-1.517-0.542-1.517-1.209v-1.578c0-0.667,0.68-1.208,1.517-1.208
	c0,0,2.178,0.42,4.183,0.42s3.926-0.42,3.926-0.42c0.839,0,1.517,0.542,1.517,1.208V111.518z"/>
<path fill="#FFFFFF" d="M259.163,116.518c0,0.667-0.678,1.209-1.517,1.209c0,0-2.025,0.462-4.135,0.421
	c-2.112-0.042-3.974-0.421-3.974-0.421c-0.837,0-1.517-0.542-1.517-1.209v-1.579c0-0.667,0.68-1.208,1.517-1.208
	c0,0,2.178,0.421,4.183,0.421s3.926-0.421,3.926-0.421c0.839,0,1.517,0.542,1.517,1.208V116.518z"/>
<g>
	<path fill="#F0D1C5" d="M253.298,58.391c0,0-9.309-0.307-8.855-2.056c0.97-3.737-0.713-8.456-0.713-8.456l9.568-4.345l0.193,0.023
		l9.569,4.345c0,0-1.683,4.718-0.713,8.456c0.453,1.749-8.856,2.056-8.856,2.056L253.298,58.391z"/>
	<g>
		<path fill="#B9CCE9" stroke="#B9CCE9" d="M253.298,45.029c-0.968-0.046-2.532,0.281-3.094,0.701
			c-0.561,0.421-1.785,0.748-2.448,0.934c-0.662,0.187-1.272,0.187-1.579,0.749c-0.305,0.561-1.174,0.561-1.784,0.793
			c-0.611,0.233-0.347,0.202-1.275,0.794c-2.345,1.495-2.905-0.047-2.499-0.515c0.409-0.467,2.041-1.447,3.265-2.148
			c1.222-0.701,2.396-1.495,2.446-2.336c0.053-0.841,1.223-0.981,1.835-0.794c0.611,0.187,0.968-0.047,1.58-0.514
			c0.612-0.468,2.637-1.496,3.554-1.635l0.193,0.023c0.919,0.141,2.942,1.168,3.554,1.635c0.613,0.467,0.969,0.701,1.58,0.514
			c0.611-0.188,1.784-0.047,1.837,0.794c0.049,0.841,1.224,1.635,2.446,2.335s2.854,1.682,3.264,2.149
			c0.407,0.467-0.154,2.008-2.498,0.513c-0.93-0.592-0.664-0.56-1.276-0.793c-0.609-0.234-1.479-0.234-1.784-0.794
			c-0.305-0.561-0.917-0.561-1.579-0.748s-1.887-0.514-2.447-0.935c-0.561-0.42-2.125-0.748-3.096-0.7L253.298,45.029z"/>
		<path fill="#B9CCE9" d="M253.299,44.597c-0.932-0.042-2.516,0.228-3.057,0.608c-0.539,0.381-1.566,0.962-2.204,1.132
			s-1.227,0.169-1.521,0.678c-0.294,0.508-1.13,0.508-1.719,0.719c-0.589,0.212-0.333,0.183-1.228,0.72
			c-2.259,1.354-3.042,0.561-2.65,0.138c0.394-0.424,2.36-1.561,3.539-2.196c1.178-0.635,2.156-1.71,2.204-2.472
			c0.05-0.762,0.98-0.547,1.57-0.378c0.589,0.17,1.29-0.231,1.878-0.653c0.59-0.424,2.329-1.298,3.213-1.425l0.221,0.011
			c0.885,0.128,2.697,1.049,3.286,1.472c0.59,0.423,1.019,0.824,1.606,0.654c0.59-0.169,1.537-0.271,1.588,0.491
			c0.048,0.762,1.207,1.724,2.385,2.359c1.18,0.635,2.897,1.726,3.291,2.149c0.393,0.423-0.074,1.226-2.332-0.13
			c-0.895-0.536-0.639-0.507-1.229-0.719c-0.588-0.212-1.424-0.212-1.719-0.72c-0.294-0.508-0.883-0.508-1.521-0.677
			c-0.638-0.169-1.709-0.69-2.249-1.072c-0.539-0.381-2.147-0.767-3.082-0.724L253.299,44.597z"/>
		<path fill="#B9CCE9" d="M253.301,44.165c-0.897-0.038-2.499,0.173-3.02,0.514c-0.52,0.341-1.348,1.178-1.961,1.33
			s-1.181,0.152-1.464,0.607c-0.282,0.456-1.086,0.456-1.653,0.645c-0.566,0.19-0.32,0.164-1.18,0.645
			c-2.173,1.214-3.177,1.17-2.801,0.791c0.38-0.379,2.679-1.674,3.813-2.243s1.916-1.925,1.962-2.608
			c0.047-0.683,0.738-0.113,1.306,0.039c0.565,0.152,1.611-0.415,2.177-0.794s2.021-1.101,2.872-1.215h0.247
			c0.85,0.114,2.453,0.929,3.019,1.308c0.566,0.379,1.068,0.946,1.633,0.794c0.569-0.152,1.29-0.496,1.338,0.187
			c0.048,0.683,1.192,1.814,2.325,2.383c1.135,0.569,2.939,1.77,3.316,2.149c0.378,0.379,0.007,0.442-2.164-0.772
			c-0.86-0.48-0.615-0.455-1.181-0.645c-0.567-0.189-1.37-0.189-1.653-0.645c-0.284-0.455-0.851-0.455-1.464-0.607
			c-0.614-0.152-1.532-0.867-2.052-1.209c-0.518-0.341-2.17-0.785-3.068-0.748L253.301,44.165z"/>
	</g>
	<path fill="none" d="M253.298,45.029c-0.968-0.046-2.532,0.281-3.094,0.701c-0.561,0.421-1.785,0.748-2.448,0.934
		c-0.662,0.187-1.272,0.187-1.579,0.749c-0.305,0.561-1.174,0.561-1.784,0.793c-0.611,0.233-0.347,0.202-1.275,0.794
		c-2.345,1.495-2.905-0.047-2.499-0.515c0.409-0.467,2.041-1.447,3.265-2.148c1.222-0.701,2.396-1.495,2.446-2.336
		c0.053-0.841,1.223-0.981,1.835-0.794c0.611,0.187,0.968-0.047,1.58-0.514c0.612-0.468,2.637-1.496,3.554-1.635l0.193,0.023
		c0.919,0.141,2.942,1.168,3.554,1.635c0.613,0.467,0.969,0.701,1.58,0.514c0.611-0.188,1.784-0.047,1.837,0.794
		c0.049,0.841,1.224,1.635,2.446,2.335s2.854,1.682,3.264,2.149c0.407,0.467-0.154,2.008-2.498,0.513
		c-0.93-0.592-0.664-0.56-1.276-0.793c-0.609-0.234-1.479-0.234-1.784-0.794c-0.305-0.561-0.917-0.561-1.579-0.748
		s-1.887-0.514-2.447-0.935c-0.561-0.42-2.125-0.748-3.096-0.7L253.298,45.029z"/>
	<g>
		<path fill="none" d="M255.618,50.192c0,0.841-0.102,1.915,0.305,2.709"/>
	</g>
	<g>
		<path fill="none" d="M256.383,50.612c0,0.607-0.051,1.495,0.305,2.055"/>
	</g>
	<g>
		<path fill="none" d="M251.173,50.168c0,0.841,0.102,1.916-0.307,2.71"/>
	</g>
	<g>
		<path fill="none" d="M250.408,50.589c0,0.607,0.051,1.495-0.307,2.056"/>
	</g>
	<g>
		<path fill="none" d="M257.505,51.219c-0.102,0.467-0.051,0.794,0.153,1.215"/>
	</g>
	<g>
		<path fill="none" d="M249.286,51.196c0.101,0.467,0.051,0.794-0.154,1.215"/>
	</g>
	<g>
		<path fill="#B9CCE9" stroke="#B9CCE9" d="M253.298,73.947c-3.213,0.095-5.185-1.261-5.438-1.587
			c-0.257-0.328-0.664-1.122-0.716-1.916c-0.051-0.793-0.051-0.653-0.051-0.653s-0.103-0.141-0.865-0.841
			c-0.767-0.701-1.226-3.364-1.531-5.139c-0.305-1.775-1.478-4.813-1.937-5.98c-0.458-1.168-0.458-2.056-0.051-3.083
			s0.61-1.822,0.765-2.943c0.153-1.121,0.968-1.588,0.968-1.168c0,0.421,0.204,2.29,0.154,3.411
			c-0.052,1.121-0.46,0.887-0.664,1.495c-0.203,0.608,0.05,0.888,0.407,0.234c0.357-0.655,1.072-1.168,2.041-1.542
			c0.968-0.374,1.019-0.374,2.293-1.588c1.275-1.215,2.754-0.187,3.06,0.513c0.305,0.701,0.51,1.495,0.714,2.523
			c0.203,1.028,0.393,1.121,0.851,1.308l0.193,0.023c0.459-0.187,0.649-0.28,0.852-1.308c0.205-1.028,0.409-1.822,0.714-2.522
			c0.306-0.701,1.784-1.729,3.06-0.515c1.273,1.215,1.325,1.215,2.293,1.588c0.969,0.374,1.684,0.888,2.04,1.542
			c0.358,0.653,0.611,0.374,0.408-0.234c-0.203-0.607-0.612-0.374-0.664-1.495c-0.05-1.121,0.154-2.989,0.154-3.41
			c0-0.42,0.815,0.047,0.967,1.167c0.155,1.122,0.359,1.916,0.766,2.944c0.408,1.028,0.408,1.916-0.05,3.083
			c-0.46,1.167-1.633,4.205-1.938,5.98s-0.766,4.438-1.53,5.138c-0.764,0.701-0.866,0.841-0.866,0.841s0-0.139-0.052,0.654
			c-0.05,0.795-0.458,1.588-0.714,1.916c-0.254,0.327-2.227,1.682-5.439,1.588L253.298,73.947z"/>
		<path fill="#B9CCE9" d="M253.375,73.586c-3.127,0.091-5.043-1.223-5.291-1.54s-0.646-1.087-0.696-1.856
			c-0.05-0.77-0.05-0.634-0.05-0.634s-0.1-0.137-0.843-0.815c-0.743-0.68-1.19-3.262-1.487-4.982
			c-0.298-1.721-1.439-4.665-1.886-5.797s-0.624-2.042-0.227-3.039c0.396-0.997,0.603-1.786,0.753-2.873
			c0.148-1.087,0.707-1.447,0.707-1.04c0,0.408-0.172,2.195-0.221,3.282s-0.244,0.999-0.442,1.588
			c-0.199,0.589,0.619,0.722,0.966,0.089c0.349-0.635,1.044-1.132,1.986-1.494c0.941-0.363,0.991-0.363,2.231-1.54
			c1.239-1.178,2.409-0.081,2.707,0.598c0.297,0.68,0.437,1.474,0.635,2.471c0.198,0.996,0.722,1.208,1.169,1.39l0.393,0.012
			c0.447-0.181,0.805-0.429,1.002-1.425c0.199-0.996,0.412-1.721,0.709-2.4c0.298-0.68,1.273-1.663,2.514-0.485
			c1.239,1.178,1.281,1.185,2.223,1.547c0.943,0.362,1.566,0.906,1.968,1.507c0.357,0.536,0.961,0.172,0.89-0.204
			c-0.081-0.428-0.383-0.821-0.572-1.711c-0.224-1.05,0.039-2.839,0.039-3.247s0.447-0.047,0.596,1.039
			c0.149,1.088,0.323,1.973,0.719,2.97c0.396,0.996,0.396,1.857-0.048,2.988c-0.448,1.133-1.589,4.077-1.886,5.798
			c-0.297,1.721-0.745,4.302-1.488,4.982c-0.744,0.679-0.844,0.814-0.844,0.814s0-0.135-0.049,0.635
			c-0.05,0.771-0.446,1.54-0.695,1.856c-0.248,0.317-2.166,1.631-5.292,1.541L253.375,73.586z"/>
		<path fill="#B9CCE9" d="M253.452,73.225c-3.04,0.088-4.903-1.184-5.145-1.492c-0.241-0.306-0.627-1.052-0.677-1.798
			c-0.048-0.746-0.048-0.614-0.048-0.614s-0.097-0.132-0.821-0.79c-0.721-0.658-1.156-3.159-1.444-4.826
			c-0.29-1.666-1.4-4.517-1.834-5.615c-0.434-1.097-0.789-2.029-0.402-2.994c0.384-0.966,0.595-1.75,0.741-2.803
			c0.145-1.052,0.445-1.306,0.445-0.911c0,0.396-0.546,2.101-0.594,3.154c-0.048,1.052-0.03,1.111-0.222,1.682
			c-0.195,0.57,1.189,0.557,1.525-0.056c0.34-0.615,1.015-1.097,1.931-1.448c0.915-0.351,0.964-0.351,2.17-1.492
			c1.204-1.141,2.064,0.026,2.354,0.683c0.289,0.659,0.363,1.452,0.556,2.418c0.193,0.965,1.051,1.296,1.487,1.472h0.592
			c0.436-0.176,0.959-0.577,1.151-1.542c0.193-0.964,0.416-1.619,0.705-2.277c0.29-0.658,0.763-1.596,1.968-0.456
			c1.205,1.141,1.237,1.155,2.153,1.506c0.916,0.351,1.44,0.929,1.895,1.472c0.35,0.421,1.336-0.035,1.372-0.174
			c0.068-0.254-0.186-1.261-0.482-1.927c-0.433-0.971-0.074-2.688-0.074-3.083c0-0.395,0.078-0.142,0.224,0.91
			c0.144,1.053,0.287,2.03,0.673,2.995c0.385,0.965,0.385,1.799-0.047,2.895c-0.436,1.097-1.544,3.949-1.835,5.616
			c-0.287,1.666-0.724,4.167-1.446,4.825c-0.724,0.658-0.819,0.789-0.819,0.789s0-0.131-0.048,0.615
			c-0.049,0.746-0.434,1.491-0.676,1.797c-0.241,0.308-2.105,1.58-5.145,1.492L253.452,73.225z"/>
	</g>
	<path fill="none" d="M253.298,73.947c-3.213,0.095-5.185-1.261-5.438-1.587c-0.257-0.328-0.664-1.122-0.716-1.916
		c-0.051-0.793-0.051-0.653-0.051-0.653s-0.103-0.141-0.865-0.841c-0.767-0.701-1.226-3.364-1.531-5.139
		c-0.305-1.775-1.478-4.813-1.937-5.98c-0.458-1.168-0.458-2.056-0.051-3.083s0.61-1.822,0.765-2.943
		c0.153-1.121,0.968-1.588,0.968-1.168c0,0.421,0.204,2.29,0.154,3.411c-0.052,1.121-0.46,0.887-0.664,1.495
		c-0.203,0.608,0.05,0.888,0.407,0.234c0.357-0.655,1.072-1.168,2.041-1.542c0.968-0.374,1.019-0.374,2.293-1.588
		c1.275-1.215,2.754-0.187,3.06,0.513c0.305,0.701,0.51,1.495,0.714,2.523c0.203,1.028,0.393,1.121,0.851,1.308l0.193,0.023
		c0.459-0.187,0.649-0.28,0.852-1.308c0.205-1.028,0.409-1.822,0.714-2.522c0.306-0.701,1.784-1.729,3.06-0.515
		c1.273,1.215,1.325,1.215,2.293,1.588c0.969,0.374,1.684,0.888,2.04,1.542c0.358,0.653,0.611,0.374,0.408-0.234
		c-0.203-0.607-0.612-0.374-0.664-1.495c-0.05-1.121,0.154-2.989,0.154-3.41c0-0.42,0.815,0.047,0.967,1.167
		c0.155,1.122,0.359,1.916,0.766,2.944c0.408,1.028,0.408,1.916-0.05,3.083c-0.46,1.167-1.633,4.205-1.938,5.98
		s-0.766,4.438-1.53,5.138c-0.764,0.701-0.866,0.841-0.866,0.841s0-0.139-0.052,0.654c-0.05,0.795-0.458,1.588-0.714,1.916
		c-0.254,0.327-2.227,1.682-5.439,1.588L253.298,73.947z"/>
	<g>
		<path fill="#F0D1C5" d="M253.438,68.167c0.813-0.077,1.781,0.034,2.412-0.807c0.632-0.84,0.854-1.016,0.966-1.436
			s0.37-0.946-0.446-0.631c-0.816,0.316-0.853,0.176-1.856,0.351c-1.001,0.175-1.483,0.21-1.93,0.069
			c-0.446-0.14-1.596-0.35-2.005-0.455c-0.409-0.105-0.854-0.246-0.558,0.49c0.299,0.736,0.113,0.946,0.929,1.542
			C251.768,67.886,251.952,68.306,253.438,68.167z"/>
		<g>
			<path fill="#F0D1C5" d="M253.438,68.667c0.813-0.058,1.905-0.019,2.515-0.68c0.654-0.71,1.219-1.411,1.461-2.35
				c0.146-0.566-0.21-0.873-0.72-0.935c-0.427-0.053-0.988,0.302-1.435,0.344c-0.736,0.07-1.457,0.252-2.199,0.251
				c-0.933-0.001-4.13-1.611-3.521,0.585C250.032,67.664,251.593,68.774,253.438,68.667c0.641-0.038,0.645-1.038,0-1
				c-1.479,0.086-2.452-0.708-2.935-2.051c0.13,0.363,1.963,0.615,2.557,0.681c1.042,0.116,2.454-0.174,3.442-0.521
				c-0.085-0.27-0.142-0.265-0.169,0.016c-0.093,0.321-0.355,0.595-0.554,0.846c-0.725,0.919-1.277,0.953-2.342,1.029
				C252.798,67.712,252.794,68.713,253.438,68.667z"/>
		</g>
	</g>
	<g>
		<path fill="none" d="M255.005,68.037c0.715-0.56,1.378-0.98,1.683-1.821c0.053-0.28,0.255-0.794,0.102-1.028"/>
	</g>
	<g>
		<path fill="#F0D1C5" d="M258.32,65.328c0.459,0.468,0.509,1.776,0,2.243c0.714-0.513,1.426-1.448,0.968-2.335"/>
	</g>
	<g>
		<path fill="none" d="M257.352,67.991c0.357-0.047,0.714-0.234,0.969-0.467"/>
	</g>
	<g>
		<path fill="none" d="M258.065,70.187c0.714,0,1.6-0.071,1.906-0.725"/>
	</g>
	<g>
		<path fill="none" d="M254.955,67.524c-0.459-0.141-0.713-0.841-0.766-1.262"/>
	</g>
	<g>
		<path fill="none" d="M255.668,67.337c-0.509-0.141-0.763-0.888-0.866-1.262"/>
	</g>
	<g>
		<path fill="none" d="M256.127,67.01c-0.355-0.187-0.61-0.701-0.712-1.027"/>
	</g>
	<g>
		<path fill="none" d="M256.434,66.356c-0.256-0.094-0.459-0.468-0.459-0.701"/>
	</g>
	<g>
		<path fill="none" d="M256.587,66.029c-0.204-0.187-0.255-0.373-0.255-0.607"/>
	</g>
	<g>
		<path fill="none" d="M254.141,68.037c-0.206-0.653-0.511-1.261-0.46-1.915"/>
	</g>
	<g>
		<path fill="none" d="M257.454,50.285c0.102-0.935,0.204-1.869,0.356-2.803c0.051-0.328,0.153-0.748,0.356-1.028"/>
	</g>
	<g>
		<path fill="none" d="M258.167,49.771c0.255-1.074,0.255-2.148,0.968-3.083"/>
	</g>
	<g>
		<path fill="none" d="M258.931,50.285c0-0.841,0.41-2.429,1.122-3.083"/>
	</g>
	<g>
		<path fill="none" d="M259.746,50.425c-0.05-0.793,0.205-1.962,0.765-2.616"/>
	</g>
	<g>
		<path fill="none" d="M260.665,50.659c0.203-0.654,0.254-1.308,0.458-1.916c0.052-0.233,0.154-0.607,0.357-0.748"/>
	</g>
	<g>
		<path fill="none" d="M261.378,52.621c0.256-1.448,0.153-2.896,0.715-4.251c0.051,0,0.051-0.047,0.101-0.094"/>
	</g>
	<g>
		<path fill="none" d="M261.48,53.088c0,0.654,0.051,1.214,0.205,1.822"/>
	</g>
	<g>
		<path fill="none" d="M260.613,53.321c0,0.28,0,0.748,0.153,1.028"/>
	</g>
	<g>
		<path fill="none" d="M259.595,52.2c-0.153,0.514-0.051,1.215,0.151,1.682"/>
	</g>
	<g>
		<path fill="none" d="M258.829,51.873c0.052,0.561-0.152,1.075,0.154,1.589"/>
	</g>
	<g>
		<path fill="none" d="M258.167,51.453c0,0.467,0,1.075,0.255,1.495"/>
	</g>
	<g>
		<path fill="none" d="M256.332,49.864c-0.103-0.28,0-0.56,0-0.841c0-0.606,0-1.214-0.052-1.821c0-0.374-0.051-0.841,0.103-1.214"/>
	</g>
	<g>
		<path fill="none" d="M255.415,48.323c0-1.028-0.154-2.103,0.102-3.083"/>
	</g>
	<g>
		<path fill="none" d="M245.972,64.043c0.614,0.561,1.225,1.215,2.142,1.215c0.662,0,1.121-0.327,1.837-0.14
			c1.018,0.28,3.145,0.747,3.348,0.747l0.193,0.023c0.206,0,2.33-0.467,3.35-0.748c0.715-0.187,1.173,0.141,1.836,0.141
			c0.918,0,1.528-0.654,2.142-1.215"/>
	</g>
	<g>
		<path fill="none" d="M251.785,68.015c-0.715-0.561-1.377-0.981-1.684-1.822c-0.051-0.281-0.255-0.794-0.101-1.028"/>
	</g>
	<g>
		<path fill="#F0D1C5" d="M248.471,65.305c-0.46,0.467-0.51,1.776,0,2.242c-0.715-0.514-1.427-1.448-0.97-2.335"/>
	</g>
	<g>
		<path fill="none" d="M249.439,67.968c-0.357-0.047-0.714-0.233-0.969-0.467"/>
	</g>
	<g>
		<path fill="none" d="M248.726,70.163c-0.715,0-1.553,0.059-1.859-0.596"/>
	</g>
	<g>
		<path fill="none" d="M251.835,67.5c0.46-0.14,0.715-0.841,0.766-1.261"/>
	</g>
	<g>
		<path fill="none" d="M251.121,67.313c0.511-0.14,0.765-0.888,0.867-1.261"/>
	</g>
	<g>
		<path fill="none" d="M250.663,66.987c0.356-0.187,0.611-0.701,0.713-1.027"/>
	</g>
	<g>
		<path fill="none" d="M250.356,66.333c0.255-0.094,0.46-0.468,0.46-0.701"/>
	</g>
	<g>
		<path fill="none" d="M250.204,66.006c0.204-0.187,0.255-0.374,0.255-0.608"/>
	</g>
	<g>
		<path fill="none" d="M252.65,68.015c0.203-0.654,0.51-1.262,0.46-1.916"/>
	</g>
	<g>
		<path fill="none" d="M249.337,50.261c-0.103-0.934-0.205-1.868-0.357-2.803c-0.051-0.327-0.152-0.747-0.356-1.028"/>
	</g>
	<g>
		<path fill="none" d="M248.623,49.748c-0.254-1.075-0.254-2.149-0.969-3.084"/>
	</g>
	<g>
		<path fill="none" d="M247.86,50.261c0-0.84-0.409-2.429-1.122-3.083"/>
	</g>
	<g>
		<path fill="none" d="M247.044,50.402c0.05-0.794-0.205-1.962-0.765-2.616"/>
	</g>
	<g>
		<path fill="none" d="M246.126,50.635c-0.204-0.654-0.254-1.308-0.459-1.915c-0.051-0.234-0.152-0.607-0.357-0.747"/>
	</g>
	<g>
		<path fill="none" d="M245.412,52.598c-0.257-1.448-0.152-2.896-0.715-4.251c-0.051,0-0.051-0.047-0.101-0.094"/>
	</g>
	<g>
		<path fill="none" d="M245.31,53.064c0,0.654-0.05,1.215-0.205,1.822"/>
	</g>
	<g>
		<path fill="none" d="M246.177,53.299c0,0.28,0,0.747-0.154,1.028"/>
	</g>
	<g>
		<path fill="none" d="M247.196,52.177c0.152,0.514,0.051,1.214-0.152,1.682"/>
	</g>
	<g>
		<path fill="none" d="M247.961,51.85c-0.052,0.561,0.152,1.075-0.154,1.588"/>
	</g>
	<g>
		<path fill="none" d="M248.623,51.43c0,0.467,0,1.075-0.254,1.495"/>
	</g>
	<g>
		<path fill="none" d="M250.459,49.842c0.102-0.281,0-0.561,0-0.841c0-0.607,0-1.215,0.051-1.822c0-0.374,0.051-0.841-0.102-1.215"
			/>
	</g>
	<g>
		<path fill="none" d="M251.376,48.299c0-1.027,0.153-2.102-0.102-3.083"/>
	</g>
</g>
<path opacity="0.55" fill="none" d="M216.401,15.476c1.435,6.794,3.954,13.134,9.398,18.296c7.531,7.285,13.9,14.859,25.194,14.859
	h2.464c11.295,0,17.663-7.575,25.193-14.859c5.579-5.293,8.088-11.824,9.505-18.813"/>
<path fill="none" d="M216.399,15.475c1.436,6.794,3.956,13.134,9.4,18.297c7.531,7.285,13.9,14.859,25.194,14.859h2.464
	c11.295,0,17.663-7.575,25.193-14.859c5.479-5.198,7.996-11.588,9.426-18.436"/>
<path fill="#FAC7B3" d="M175.219,238.962c-1.136,0.722-1.462,2.208-0.725,3.32c0.736,1.113,2.256,1.432,3.394,0.711
	c18.172-11.523,45.457-18.129,74.847-18.129c30.006,0,58.594,7.174,76.478,19.189c1.115,0.75,2.644,0.472,3.41-0.619
	c0.768-1.093,0.482-2.587-0.633-3.336c-18.949-12.732-47.835-20.036-79.255-20.036C222.42,220.062,194.165,226.95,175.219,238.962z"
	/>
<g>
	<path fill="none" d="M185.25,235.268c0,1.399-1.43,3.4-2.044,4.6"/>
</g>
<g>
	<path fill="none" d="M190.563,235.066c0.612-1.398,1.228-2.801,1.84-4c0.409-0.202,0.614-0.603,0.819-1.002"/>
</g>
<g>
	<path fill="none" d="M202.424,228.466c-1.023,1.398-1.638,3.2-2.25,4.2"/>
</g>
<g>
	<path fill="none" d="M211.015,228.063c0.612-1.4,1.431-2.8,1.839-3.799"/>
</g>
<g>
	<path fill="none" d="M223.077,224.463c-0.817,1.001-1.432,2-1.841,3.2"/>
</g>
<g>
	<path fill="none" d="M232.078,223.862c0.613-1,1.228-2.201,1.842-2.8"/>
</g>
<g>
	<path fill="none" d="M243.123,221.861c-0.411,1.201-1.431,2.2-1.841,3.202"/>
</g>
<g>
	<path fill="none" d="M253.961,223.062c0.612-1.001,1.226-2,1.839-2.8c0,0,0.409-0.401,0.203-0.201"/>
</g>
<g>
	<path fill="none" d="M267.253,222.663c-0.615,0.8-1.433,1.601-2.046,2.401"/>
</g>
<g>
	<path fill="none" d="M274.408,224.263c0.816-0.801,1.637-2.001,2.452-2.603"/>
</g>
<g>
	<path fill="none" d="M288.312,225.262c-1.022,0.599-1.433,1.601-2.249,2.401"/>
</g>
<g>
	<path fill="none" d="M297.923,229.063c0.613-0.8,2.045-1.8,2.249-2.601c0.204-0.399,0,0,0.204,0"/>
</g>
<g>
	<path fill="none" d="M309.985,231.066c-0.614,0.6-1.635,1.399-2.045,1.999c-0.205,0-0.205,0-0.407,0.201"/>
</g>
<g>
	<path fill="none" d="M318.164,236.266c0.613-0.799,1.636-2.199,2.658-2.199"/>
</g>
<path opacity="0.61" fill="#FFCA05" d="M212.73,100.513L212.73,100.513c-29.25,27.914-40.736,63.417-36.137,111.728
	c0.714,7.483,2.929,12.203,6.777,14.432c5.213,3.018,11.321,0.425,16.231-1.661l1.425-0.599c7.187-2.975,13.224-4.929,24.521-6.744
	c5.907-0.947,9.912-2.99,12.24-6.247c3.409-4.769,2.242-10.821,1.207-16.159l-0.738-4.201c-1.206-8.737,1.167-20.271,3.234-25.672
	l2.545-6.047c1.731-3.938,3.519-8.01,4.459-12.244l0.437-1.874c1.337-5.629,3.167-13.339,2.873-36.672
	c-0.083-6.541-1.454-18.018-9.748-21.381C234.815,84.233,225.224,88.599,212.73,100.513z M239.338,93.591
	c3.839,1.556,5.289,8.793,5.365,15.047c0.283,22.494-1.435,29.73-2.688,35.016l-0.46,1.968c-0.794,3.582-2.37,7.173-4.043,10.976
	l-2.667,6.352c-2.722,7.099-2.151,9.432-3.625,29.044c-1.353,18.024-47.813-1.385-48.033-13.099
	c2.417-30.067,13.561-53.426,34.502-73.407C231.415,92.393,237.401,92.806,239.338,93.591z"/>
<path fill="none" stroke="#8F3F97" stroke-width="2" d="M212.83,100.61L212.83,100.61c-15.771,15.049-26.221,32.001-31.943,51.826
	c-2.089,7.237-3.542,14.88-4.361,23.01c-1.137,11.253-1.063,23.441,0.208,36.783c0.707,7.436,2.903,12.125,6.708,14.326
	c5.153,2.984,11.229,0.402,16.111-1.672l1.42-0.599c7.196-2.975,13.235-4.934,24.552-6.748c5.87-0.943,9.845-2.965,12.147-6.19
	c3.378-4.723,2.214-10.745,1.185-16.056l-0.742-4.21c-1.208-8.758,1.171-20.325,3.248-25.738l2.545-6.057
	c1.727-3.931,3.513-7.995,4.45-12.215l0.436-1.875c1.334-5.624,3.167-13.326,2.872-36.639c-0.081-6.508-1.446-17.925-9.663-21.257
	C234.818,84.385,225.272,88.739,212.83,100.61z M239.393,93.464c3.899,1.582,5.372,8.875,5.453,15.173
	c0.282,22.506-1.44,29.755-2.694,35.047l-0.456,1.967c-0.803,3.593-2.382,7.189-4.053,10.996l-2.67,6.35
	c-2.717,7.085-3.178,10.405-3.615,28.978c-0.404,16.979-49.58-0.835-48.177-14.657c2.674-29.348,13.803-52.269,34.411-71.93l0,0
	C231.376,92.238,237.431,92.668,239.393,93.464z"/>
<path opacity="0.5" fill="#B9CCE9" stroke="#231F20" d="M238.519,95.418c3.579,1.524,4.374,10.095,4.448,16.169
	c0.258,21.7-2.113,27.602-3.268,32.704l-0.42,1.899c-0.732,3.463-2.186,6.931-3.723,10.603l-2.452,6.125
	c-2.492,6.825-4.218,12.236-3.319,27.94c0.897,15.702-45.083-2.718-44.3-12.36c2.35-28.923,12.906-51.163,32.207-70.493l0,0
	C230.353,95.327,236.717,94.651,238.519,95.418z"/>
<path fill="none" stroke="#808285" d="M238.519,95.418c3.579,1.524,4.374,10.095,4.448,16.169c0.258,21.7-2.113,27.602-3.268,32.704
	l-0.42,1.899c-0.732,3.463-2.186,6.931-3.723,10.603l-2.452,6.125c-2.492,6.825-4.218,12.236-3.319,27.94
	c0.897,15.702-45.083-2.718-44.3-12.36c2.35-28.923,12.906-51.163,32.207-70.493l0,0C230.353,95.327,236.717,94.651,238.519,95.418z
	"/>
<g>
	<path fill="none" stroke="#808285" d="M170.91,172.236c-0.115,4.635-1.846,15.652-2.079,18.817"/>
	<path fill="none" stroke="#808285" d="M172.96,172.494c-0.693,3.163-1.876,13.171-1.876,15.66"/>
	<path fill="none" stroke="#808285" d="M169.004,195.836c0.349,3.502,0.923,10.96,0.579,13.785"/>
	<path fill="none" stroke="#808285" d="M171.776,194.706c-1.039,8.361,0.566,15.307,0.463,15.029"/>
	<path fill="none" stroke="#808285" d="M169.813,215.948c0.809,2.485,1.157,4.974,1.039,7.232"/>
	<path fill="none" stroke="#808285" d="M172.469,215.27c-0.23,3.277-0.115,5.424,0.345,7.122"/>
	<path fill="none" stroke="#808285" d="M177.328,150.028c-1.271,3.505-3.475,13.388-3.705,16.999"/>
	<path fill="none" stroke="#808285" d="M180.9,134.027c-1.387,5.197-2.657,8.475-3.928,11.414"/>
	<path fill="none" stroke="#808285" d="M184.7,131.893c-1.961,3.504-4.725,10.27-5.765,16.598"/>
	<path fill="none" stroke="#808285" d="M196.713,113.423c-3.463,3.39-8.427,11.789-9.927,14.84"/>
	<path fill="none" stroke="#808285" d="M209.306,93.461c-2.656,3.729-7.971,9.945-10.629,12.881"/>
	<path fill="none" stroke="#808285" d="M212.274,95.351c-2.885,2.033-10.246,9.749-11.861,12.572"/>
	<path fill="none" stroke="#808285" d="M214.385,90.373c2.656-1.356,12.017-7.194,13.748-9.002"/>
	<path fill="none" stroke="#808285" d="M215.551,92.374c1.963-2.258,11.31-7.613,14.316-8.517"/>
	<path fill="none" stroke="#808285" d="M174.202,153.122c-0.809,4.86-1.501,9.944-2.541,13.674"/>
	<path fill="none" stroke="#808285" d="M193.943,111.654c-1.585,3.621-6.364,10.932-8.753,14.484"/>
	<path fill="#FFFFFF" stroke="#808285" d="M214.847,88.919c-1.647,0.13-3.974,1.428-4.964,2.716
		c-0.777,1.008-1.937,4.13-0.259,4.883c1.53,0.689,4.101-2.413,5.009-3.428c0.781-0.875,3.563-2.889,2.615-4.06
		c-0.696-0.859-2.428-0.495-3.092,0.117"/>
	<path fill="#FFFFFF" stroke="#808285" d="M198.216,105.645c-1.482,1.047-3.16,2.625-3.898,4.265
		c-0.594,1.313-1.563,5.102,1.248,3.901c1.649-0.706,7.565-7.986,3.573-8.398c-0.75-0.078-1.417,0.622-1.844,1.135"/>
	<path fill="#FFFFFF" stroke="#808285" d="M176.858,144.965c-0.155,1.33-1.895,3.214-2.222,4.831
		c-0.233,1.159-0.965,5.885,1.416,3.552c1.232-1.206,2.352-3.157,2.659-4.767c0.128-0.673,0.401-2.316,0.238-2.942
		c-0.244-0.942-1.459-1.453-2.206-0.674"/>
	<path fill="#FFFFFF" stroke="#808285" d="M168.772,189.713c-0.054,1.47-0.41,5.366,0.724,6.534c1.688,1.734,2.384-2.06,2.396-3.145
		c0.02-1.677,0.229-4.073-0.784-5.451c-1.814-2.473-2.335,2.868-2.335,3.87"/>
	<path fill="#FFFFFF" stroke="#808285" d="M171.892,208.358c-1.022-2.659-2.623,0.925-2.777,1.939
		c-0.229,1.504-0.263,3.928,0.695,5.177c1.609,2.093,2.759-0.192,2.774-1.802c0.019-1.843,0.473-4.396-0.923-5.656"/>
	<path fill="#FFFFFF" stroke="#808285" d="M170.97,222.708c-0.39,1.6-0.341,3.84,0.659,5.115c1.307,1.661,2.547,1.459,2.573-0.71
		c0.017-1.544-0.008-3.64-0.952-4.948c-1.298-1.787-2.872,0.182-2.28,1.785"/>
	<path fill="#FFFFFF" stroke="#808285" d="M171.661,165.984c-0.299,1.073,1.594-0.549,1.962,0.23c0.329,0.698,0.049,1.927,0,2.711
		c-0.099,1.579-0.043,4.156-0.947,5.536c-1.602,2.448-2.168-1.672-2.17-2.709c-0.002-1.79,0.041-4.756,1.615-5.997"/>
	<path fill="#FFFFFF" stroke="#808285" d="M185.19,125.326c-0.222,0.328-0.421,0.625-0.599,0.883
		c-0.188,0.275,0.822-0.586,1.159-0.574c2.917,0.115-0.617,9.429-3.587,9.399c-2.378-0.025-0.629-3.485-0.309-4.529
		c0.623-2.016,1.076-3.958,3.313-4.749"/>
</g>
<g>
	<path fill="none" stroke="#808285" d="M334.477,172.236c0.114,4.635,1.846,15.652,2.079,18.817"/>
	<path fill="none" stroke="#808285" d="M332.916,175.721c0.693,3.163,1.388,9.944,1.388,12.433"/>
	<path fill="none" stroke="#808285" d="M336.382,195.836c-0.349,3.502-0.923,10.96-0.578,13.785"/>
	<path fill="none" stroke="#808285" d="M333.609,194.706c1.041,8.361-0.563,15.307-0.461,15.029"/>
	<path fill="none" stroke="#808285" d="M335.574,215.948c-0.812,2.485-1.157,4.974-1.04,7.232"/>
	<path fill="none" stroke="#808285" d="M332.916,215.27c0.232,3.277,0.117,5.424-0.346,7.122"/>
	<path fill="none" stroke="#808285" d="M327.95,152.669c1.271,3.506,3.581,10.747,3.812,14.357"/>
	<path fill="none" stroke="#808285" d="M324.486,134.027c1.385,5.197,2.655,8.475,3.927,11.414"/>
	<path fill="none" stroke="#808285" d="M321.021,134.252c1.966,3.503,4.387,7.91,5.431,14.238"/>
	<path fill="none" stroke="#808285" d="M308.666,113.423c3.463,3.39,8.431,11.789,9.931,14.84"/>
	<path fill="none" stroke="#808285" d="M296.078,93.461c2.654,3.729,7.966,9.945,10.625,12.881"/>
	<path fill="none" stroke="#808285" d="M294.807,97.417c2.887,2.033,8.547,7.683,10.162,10.506"/>
	<path fill="none" stroke="#808285" d="M290.996,90.373c-2.653-1.356-12.009-7.194-13.742-9.002"/>
	<path fill="none" stroke="#808285" d="M288.458,91.766c-1.964-2.257-9.935-7.004-12.938-7.908"/>
	<path fill="none" stroke="#808285" d="M331.182,153.122c0.813,4.86,1.504,9.944,2.544,13.674"/>
	<path fill="none" stroke="#808285" d="M311.437,111.654c1.586,3.621,6.366,10.932,8.758,14.484"/>
	<path fill="#FFFFFF" stroke="#808285" d="M290.537,89.731c1.646,0.129,3.973,1.427,4.963,2.716c0.777,1.009,1.937,4.13,0.26,4.883
		c-1.532,0.689-4.102-2.412-5.008-3.429c-0.781-0.875-3.565-2.889-2.616-4.059c0.694-0.86,2.428-0.495,3.094,0.116"/>
	<path fill="#FFFFFF" stroke="#808285" d="M307.165,106.457c1.48,1.048,3.16,2.625,3.902,4.265c0.589,1.313,1.558,5.102-1.255,3.901
		c-1.647-0.707-7.559-7.986-3.57-8.398c0.747-0.077,1.417,0.622,1.846,1.135"/>
	<path fill="#FFFFFF" stroke="#808285" d="M328.529,145.778c0.152,1.33,1.893,3.214,2.219,4.831
		c0.234,1.159,0.966,5.885-1.414,3.552c-1.231-1.207-2.351-3.158-2.659-4.768c-0.13-0.672-0.4-2.315-0.238-2.942
		c0.244-0.942,1.459-1.453,2.207-0.673"/>
	<path fill="#FFFFFF" stroke="#808285" d="M336.614,189.713c0.053,1.47,0.408,5.366-0.726,6.534
		c-1.686,1.734-2.382-2.06-2.395-3.145c-0.019-1.677-0.229-4.073,0.785-5.451c1.813-2.473,2.335,2.868,2.335,3.87"/>
	<path fill="#FFFFFF" stroke="#808285" d="M333.494,208.358c1.023-2.659,2.624,0.925,2.777,1.939
		c0.229,1.504,0.264,3.928-0.695,5.177c-1.608,2.093-2.761-0.192-2.775-1.802c-0.018-1.843-0.472-4.396,0.925-5.656"/>
	<path fill="#FFFFFF" stroke="#808285" d="M334.417,222.708c0.39,1.6,0.341,3.84-0.659,5.115c-1.307,1.661-2.549,1.459-2.576-0.71
		c-0.015-1.544,0.01-3.64,0.954-4.948c1.299-1.787,2.873,0.182,2.281,1.785"/>
	<path fill="#FFFFFF" stroke="#808285" d="M333.726,166.795c0.299,1.073-1.595-0.549-1.964,0.231c-0.328,0.697-0.049,1.927,0,2.71
		c0.1,1.579,0.044,4.157,0.947,5.537c1.603,2.447,2.17-1.673,2.17-2.709c0.004-1.79-0.039-4.756-1.614-5.997"/>
	<path fill="#FFFFFF" stroke="#808285" d="M320.194,126.138c0.222,0.328,0.422,0.624,0.598,0.883
		c0.188,0.276-0.824-0.585-1.159-0.574c-2.918,0.115,0.617,9.429,3.591,9.4c2.378-0.025,0.63-3.486,0.309-4.529
		c-0.626-2.016-1.077-3.958-3.317-4.749"/>
</g>
<path opacity="0.6" fill="none" stroke="#FFCA05" stroke-width="9" d="M261.382,108.202c-0.2-14.434,7.776-24.525,21.168-12.429
	c32.974,29.781,40.927,66.113,42.737,82.193c1.656,14.705,1.792,32.835-1.464,39.651c-2.615,5.468-9.323,3.25-13.8,2.047
	c-7.45-2.001-15.034-2.99-22.861-4.87c-5.878-1.411-8.241-5.996-8.479-9.364c-0.52-7.289,3.272-29.819,0.204-36.486
	c-1.296-2.816-3.737-5.604-6.31-8.219c-8.634-8.776-9.54-10.236-9.973-18.443C262.382,138.029,261.382,108.202,261.382,108.202z"/>
<g>
	<path fill="none" stroke="#8F3F97" stroke-width="2" d="M266.438,86.782c-6.235,2.917-9.871,10.95-9.724,21.487l0.003,0.096
		c0.041,1.219,1.005,29.922,1.228,34.173c0.517,9.819,2.187,12.26,11.338,21.562c1.94,1.974,4.308,4.54,5.377,6.868
		c1.448,3.147,0.511,14.885-0.05,21.898c-0.426,5.338-0.795,9.949-0.584,12.91c0.385,5.447,4.268,11.782,12.066,13.655
		c3.612,0.867,7.162,1.548,10.595,2.206c4.217,0.808,8.199,1.572,12.147,2.632c0.001,0,0.782,0.214,0.782,0.214
		c4.625,1.266,14.253,3.901,18.404-4.779c3.983-8.338,3.517-27.988,1.906-42.281c-1.706-15.137-9.435-53.74-44.282-85.215
		C276.955,84.36,270.403,84.925,266.438,86.782z M266.049,107.658c0-7.015,2.196-11.244,4.281-12.22
		c2.013-0.941,5.341,0.478,9.125,3.9c32.429,29.292,39.611,65.125,41.194,79.172c1.813,16.09,1.372,32.005-1.023,37.021
		c-0.646,1.354-3.271,0.935-7.589-0.247l-0.827-0.224c-4.272-1.149-8.606-1.979-12.798-2.784c-3.33-0.638-6.775-1.299-10.178-2.116
		c-4.486-1.077-4.868-4.667-4.896-5.072c-0.026-0.373-0.038-0.809-0.038-1.298c0-2.438,0.301-6.203,0.616-10.151
		c0.478-5.963,0.845-11.182,0.845-15.556c0-4.765-0.437-8.528-1.649-11.162c-1.677-3.648-4.6-6.884-7.236-9.567
		c-8.242-8.376-8.262-8.769-8.607-15.328c-0.217-4.117-1.188-33.078-1.216-33.928C266.05,107.951,266.049,107.804,266.049,107.658z"
		/>
</g>
<g opacity="0.5">
	<g>
		<path fill="#B9CCE9" stroke="#231F20" d="M268.024,107.658c0-6.693,2.07-9.827,3.072-10.296c0.673-0.313,2.973,0.026,6.883,3.56
			c31.895,28.807,38.954,64.025,40.509,77.831c0.774,6.866,1.107,13.297,1.107,18.808c0,8.014-0.71,14.045-1.796,16.685
			c-0.567,0.069-1.933-0.074-5.325-1.004c-0.002-0.001-0.826-0.226-0.826-0.226c-4.344-1.167-8.71-2.004-12.931-2.813
			c-3.327-0.638-6.746-1.293-10.108-2.101c-2.967-0.711-3.269-2.76-3.299-3.163c0-0.001-0.033-1.147-0.033-1.147
			c0-2.347,0.294-6.044,0.607-9.957c0.433-5.42,0.854-11.08,0.854-15.75c0-5.492-0.587-9.324-1.847-12.061
			c-1.816-3.949-4.887-7.355-7.652-10.167c-7.675-7.803-7.675-7.803-8-13.941c-0.214-4.106-1.204-33.592-1.213-33.888
			C268.028,108.069,268.024,107.658,268.024,107.658z"/>
	</g>
</g>
<g>
	<g>
		<path fill="none" stroke="#808285" d="M268.024,107.658c0-6.693,2.07-9.827,3.072-10.296c0.673-0.313,2.973,0.026,6.883,3.56
			c31.895,28.807,38.954,64.025,40.509,77.831c0.774,6.866,1.107,13.297,1.107,18.808c0,8.014-0.71,14.045-1.796,16.685
			c-0.567,0.069-1.933-0.074-5.325-1.004c-0.002-0.001-0.826-0.226-0.826-0.226c-4.344-1.167-8.71-2.004-12.931-2.813
			c-3.327-0.638-6.746-1.293-10.108-2.101c-2.967-0.711-3.269-2.76-3.299-3.163c0-0.001-0.033-1.147-0.033-1.147
			c0-2.347,0.294-6.044,0.607-9.957c0.433-5.42,0.854-11.08,0.854-15.75c0-5.492-0.587-9.324-1.847-12.061
			c-1.816-3.949-4.887-7.355-7.652-10.167c-7.675-7.803-7.675-7.803-8-13.941c-0.214-4.106-1.204-33.592-1.213-33.888
			C268.028,108.069,268.024,107.658,268.024,107.658z"/>
	</g>
</g>
<text transform="matrix(1.0086 0 0 1 14.6011 120.0142)"><tspan x="0" y="0" fill="#333333" font-family="Liberation Sans, Helvetica, Arial, sans-serif" font-size="14.1">Pleura</tspan><tspan x="0" y="16.92" fill="#333333" font-family="Liberation Sans, Helvetica, Arial, sans-serif" font-size="14.1">(lung lining)</tspan></text>
<text transform="matrix(1.0086 0 0 1 14.6011 167.9897)" fill="#333333" font-family="Liberation Sans, Helvetica, Arial, sans-serif" font-size="14.1">Lung</text>
<text transform="matrix(1.0086 0 0 1 14.6011 213.7793)"><tspan x="0" y="0" fill="#333333" font-family="Liberation Sans, Helvetica, Arial, sans-serif" font-size="14.1">Pleural effusion</tspan><tspan x="0" y="16.92" fill="#333333" font-family="Liberation Sans, Helvetica, Arial, sans-serif" font-size="14.1">(fluid between</tspan><tspan x="0" y="33.84" fill="#333333" font-family="Liberation Sans, Helvetica, Arial, sans-serif" font-size="14.1">pleural space)</tspan></text>
<text transform="matrix(1.0086 0 0 1 14.6011 85.4951)" fill="#333333" font-family="Liberation Sans, Helvetica, Arial, sans-serif" font-size="14.1">(windpipe)</text>
<text transform="matrix(1.0086 0 0 1 15.5728 68.9883)" fill="#333333" font-family="Liberation Sans, Helvetica, Arial, sans-serif" font-size="14.1">Trachea</text>
<line fill="none" stroke="#333333" x1="118" y1="209.5" x2="187" y2="209.5"/>
<line fill="none" stroke="#333333" x1="51" y1="164.5" x2="199" y2="164.5"/>
<line fill="none" stroke="#333333" x1="205" y1="108.5" x2="110" y2="108.5"/>
<line fill="none" stroke="#333333" x1="202" y1="123.5" x2="111" y2="123.5"/>
<line fill="none" stroke="#333333" x1="110.5" y1="109" x2="110.5" y2="124"/>
<line fill="none" stroke="#333333" x1="110" y1="115.5" x2="65" y2="115.5"/>
<line fill="none" stroke="#333333" x1="254" y1="80.5" x2="85" y2="80.5"/>
</svg>
